<?xml version="1.0" standalone="no"?><!DOCTYPE svg PUBLIC "-//W3C//DTD SVG 1.1//EN" "http://www.w3.org/Graphics/SVG/1.1/DTD/svg11.dtd"><svg class="icon" width="200px" height="200.00px" viewBox="0 0 1024 1024" version="1.1" xmlns="http://www.w3.org/2000/svg"><path fill="#005bd4" d="M349.76 812.256V644.8l102.72 58.944c21.312 12.416 38.24 22.432 41.152 24.672l0.448 0.448V896l-144.32-83.744zM674.24 644.48v167.456L529.92 895.68V728.864c0-0.64 12.16-8 29.44-18.144l114.88-66.24zM176 710.304V542.848l102.72 58.944c21.312 12.416 38.24 22.432 41.152 24.672l0.448 0.448v167.136L176 710.304z m672-167.776v167.456l-144.32 83.744V626.912c0-0.896 29.44-18.112 61.728-36.8L848 542.528z m-336.96-10.24l140.16 84.384L512 701.376l-140.16-85.024 139.2-84.064zM176 510.24V342.784l102.72 58.944c21.312 12.384 38.24 22.432 41.152 24.64l0.448 0.448v167.168L176 510.24z m353.92 0V342.784l102.72 58.944c21.312 12.384 38.24 22.432 41.152 24.64l0.448 0.448v167.168L529.92 510.24zM494.4 342.464V509.92l-144.32 83.744V426.816c0-1.28 48.544-29.536 89.344-52.992l54.976-31.36z m353.6 0V509.92l-144.32 83.744V426.816c0-1.28 48.64-29.536 89.472-52.992L848 342.464zM686.72 228.992l139.52 85.024-143.04 83.392-112.672-68c-12.48-7.648-21.44-13.312-23.52-14.944l-0.352-0.352 0.448-0.192c3.392-1.664 18.176-10.528 36.928-21.92l102.688-63.008z m-488.64 85.024l139.2-85.344 121.856 74.56c7.616 4.608 13.408 8 16.32 9.6l1.856 0.96-0.32 0.384-3.36 2.4a1392.64 1392.64 0 0 1-37.76 23.52l-94.752 56.992-143.04-83.072zM511.04 128l140.16 84.064L512 297.056l-140.16-84.992L511.04 128z" /></svg>