<svg width="1200" height="556" viewBox="0 0 1200 556" fill="none" xmlns="http://www.w3.org/2000/svg"><path d="M1008 100c0-4.418 3.58-8 8-8h176c4.42 0 8 3.582 8 8v448a8 8 0 0 1-8 8h-176a8 8 0 0 1-8-8V100z" fill="#fff"/><path fill-rule="evenodd" clip-rule="evenodd" d="M1192 93h-176c-3.87 0-7 3.134-7 7v448c0 3.866 3.13 7 7 7h176c3.87 0 7-3.134 7-7V100c0-3.866-3.13-7-7-7zm-176-1c-4.42 0-8 3.582-8 8v448a8 8 0 0 0 8 8h176a8 8 0 0 0 8-8V100c0-4.418-3.58-8-8-8h-176z" fill="#1F2D3D"/><path d="M1082.03 158.4v3.536h-3.85v1.12h8.92v-1.12h-3.88V158.4h3.15v-1.12h-7.47v1.12h3.13zm1.11-4.512c1.39.928 2.49 1.824 3.32 2.672l.85-.848c-.93-.848-2.08-1.696-3.42-2.544a9.247 9.247 0 0 0 1.73-2.608v-.912h-6.85v1.104h5.47c-1.15 2.048-3.23 3.648-6.22 4.768l.72.944c1.76-.688 3.23-1.552 4.4-2.576zm-5.12 6.16c-1.51.768-3.27 1.392-5.27 1.856l.16 1.104c1.89-.48 3.6-1.104 5.11-1.872v-1.088zm-2.55-11.136c-.62 1.856-1.36 3.52-2.21 4.96-.14.208-.3.352-.48.432l.29 1.056c.91-.128 1.83-.256 2.74-.4-.9 1.536-1.67 2.624-2.31 3.264-.14.128-.32.24-.51.32l.31 1.056c1.52-.208 3.1-.592 4.75-1.168v-1.056c-1.12.4-2.23.72-3.35.96.98-1.152 2.21-3.072 3.68-5.776l-1.05-.4a63.25 63.25 0 0 1-.95 1.776c-.75.128-1.48.224-2.22.288.82-1.216 1.62-2.832 2.42-4.88l-1.11-.432z" fill="#1F2D3D"/><path d="M1092.05 154.768v3.248h7.97v-3.248h-7.97zm6.89 2.368h-5.82v-1.472h5.82v1.472zm2.6 1.968h-10.92v4.512h1.12v-.656h8.69v.656h1.11v-4.512zm-9.8 2.88v-1.92h8.69v1.92h-8.69zm-2.62-11.952v1.008h3.6v.944h1.15v-.944h4.26v.944h1.15v-.944h3.6v-1.008h-3.6v-1.072h-1.15v1.072h-4.26v-1.072h-1.15v1.072h-3.6zm13.31 2.624h-12.86v3.072h1.1v-2.096h10.66v2.016h1.1v-2.992z" fill="#1F2D3D"/><path d="M1104.98 153.696v1.056h6.43V156h-4.98v4.208h1.14v-3.2h3.84v1.392c-1.76 1.712-3.91 3.024-6.42 3.952l.67 1.008a18.46 18.46 0 0 0 5.75-3.76v4.048h1.18v-4.112c1.73 1.584 3.79 2.832 6.19 3.744l.61-1.04c-2.78-.928-5.05-2.192-6.8-3.824v-1.408h4.1v1.76c0 .32-.16.496-.47.496l-1.04-.048.29 1.024h1.09c.85 0 1.28-.416 1.28-1.232V156h-5.25v-1.248h6.43v-1.056h-6.43v-1.104h-1.18v1.104h-6.43zm2.06-2.432h.78c.45.64.84 1.296 1.16 2l1.04-.384c-.26-.496-.6-1.04-1-1.616h2.71v-1.024h-4.13c.19-.4.37-.832.53-1.28l-1.11-.24c-.46 1.312-1.2 2.512-2.22 3.6l.99.624a12.9 12.9 0 0 0 1.25-1.68zm6.69 0h1.09c.41.64.8 1.296 1.12 2l1-.384a14.39 14.39 0 0 0-.94-1.616h2.98v-1.024h-4.8c.14-.416.27-.832.4-1.264l-1.12-.24a10.183 10.183 0 0 1-1.57 3.344l.97.64c.32-.448.61-.944.87-1.456z" fill="#1F2D3D"/><path d="M1134.14 157.584h-6.24v5.936h1.12v-.704h4v.704h1.12v-5.936zm-5.12 4.144v-3.072h4v3.072h-4zm-6.73-.224h3.28v.736h.99v-5.376l.58.768c1.53-.64 2.86-1.392 3.98-2.272 1.06.832 2.32 1.568 3.81 2.224l.49-1.024c-1.37-.528-2.54-1.152-3.53-1.872a10.54 10.54 0 0 0 2.37-3.408v-.88h-4.34c.18-.384.35-.784.54-1.216l-1.13-.24c-.72 1.728-1.63 3.12-2.75 4.192l.75.88c.45-.432.86-.912 1.25-1.44.44.72 1.02 1.408 1.69 2.048-1.01.784-2.24 1.472-3.71 2.048v-6.608h-5.31v12.176h1.04v-.736zm3.28-1.024h-1.19v-4.24h1.19v4.24zm0-5.248h-1.19v-4.112h1.19v4.112zm-2.11-4.112v4.112h-1.17v-4.112h1.17zm-1.17 5.12h1.17v4.24h-1.17v-4.24zm8.73-2.256a8.981 8.981 0 0 1-1.85-2.256c.03-.08.08-.16.14-.24h3.63c-.48.896-1.12 1.728-1.92 2.496z" fill="#1F2D3D"/><path d="M1098 135c0-.552.45-1 1-1h10c.55 0 1 .448 1 1s-.45 1-1 1h-10c-.55 0-1-.448-1-1z" fill="#1F2D3D"/><path d="M1110 128.221a10.99 10.99 0 0 0 5-9.221c0-6.075-4.92-11-11-11s-11 4.925-11 11a10.99 10.99 0 0 0 5 9.221V130c0 1.105.9 2 2 2h8c1.1 0 2-.895 2-2v-1.779z" fill="#00BF8B"/><path fill-rule="evenodd" clip-rule="evenodd" d="M1099.2 118.4a1 1 0 0 1 1.4-.2l3.4 2.55 3.4-2.55a1 1 0 0 1 1.2 1.6l-3.6 2.7v2.5c0 .552-.45 1-1 1s-1-.448-1-1v-2.5l-3.6-2.7a1.003 1.003 0 0 1-.2-1.4z" fill="#CDEFE6"/><path d="M1056.86 247.608v1.04h2.23c-.51 1.632-1.38 3.104-2.56 4.4l.49 1.248c.9-1.152 1.6-2.448 2.13-3.856v6.16h1.11v-6.448c.48.704 1.05 1.616 1.72 2.752l.66-.976c-.8-1.008-1.58-1.936-2.38-2.768v-.512h1.92v-1.04h-1.92v-5.648h-1.11v5.648h-2.29zm4.71-4.608c-.1 1.312-.32 2.464-.66 3.456l.79.256c.38-1.056.64-2.256.73-3.6l-.86-.112zm-3.81.272l-.85.272c.29 1.056.53 2.144.72 3.28l.8-.192a45.485 45.485 0 0 0-.67-3.36zm8.72-1.36v1.056h-3.42v.944h3.42v1.072h-2.98v.928h2.98V247h-3.79v.96h8.64V247h-3.75v-1.088h2.88v-.928h-2.88v-1.072h3.33v-.944h-3.33v-1.056h-1.1zm-1.82 10.08h4.65v1.136h-4.65v-1.136zm4.65-.896h-4.65v-1.184h4.65v1.184zm-4.65 2.912h4.65v.96c0 .368-.17.56-.51.56l-1.09-.064.29 1.024h1.12c.86 0 1.31-.432 1.31-1.28v-6.24h-6.86v7.6h1.09v-2.56z" fill="#1F2D3D"/><path d="M1073.78 242.456l-.98.608c1.07 1.36 1.92 2.592 2.53 3.696l.96-.656c-.58-1.04-1.43-2.256-2.51-3.648zm1.55 6.96a63.59 63.59 0 0 1-2.51 6.608l1.08.464c.9-2.08 1.73-4.288 2.47-6.656l-1.04-.416zm3.79-.4h3.31v2.192h-3.31v-2.192zm0 3.264h3.31v2.384h-3.31v-2.384zm0 3.456h8.13v-1.072h-3.71v-2.384h3.07v-1.072h-3.07v-2.192h3.04v-1.072h-3.04v-2.192h3.37v-1.088h-3.6l.43-.16c-.2-.816-.49-1.728-.88-2.72l-1.1.32c.37.816.67 1.664.93 2.56h-3.41c.34-.816.62-1.664.86-2.544l-1.1-.224a17.921 17.921 0 0 1-2.94 6.224l.38 1.216a22.76 22.76 0 0 0 1.52-2.16v9.44h1.12v-.88zm3.31-9.984v2.192h-3.31v-2.192h3.31z" fill="#1F2D3D"/><path d="M1096.42 241.688l-1.27.224c.32.512.63 1.088.88 1.712h-5.95v4.688c-.03 3.232-.51 5.744-1.41 7.568l.95.848c1.04-2.112 1.58-4.912 1.64-8.416v-3.584h11.86v-1.104h-5.82c-.29-.72-.58-1.36-.88-1.936z" fill="#1F2D3D"/><path d="M1117.26 250.696h-10.43v5.888h1.17v-.848h8.1v.848h1.16v-5.888zm-9.26 3.952V251.8h8.1v2.848h-8.1zm-.21-9.36h3.83v2.592h-6.85v1.136h14.46v-1.136h-6.45v-2.592h5.24v-1.104h-5.24v-2.272h-1.16v2.272h-3.14c.32-.592.58-1.216.78-1.888l-1.15-.128c-.51 1.68-1.5 3.104-2.94 4.256l.69.912c.75-.624 1.39-1.312 1.93-2.048z" fill="#1F2D3D"/><path d="M1122.59 256.424c.93 0 1.41-.48 1.41-1.44v-4.72c.59-.288 1.17-.608 1.74-.928v-1.184c-.57.352-1.15.672-1.74.96v-3.136h1.82v-1.104H1124v-2.928h-1.15v2.928h-1.95v1.104h1.95v3.648c-.74.304-1.51.56-2.27.768l.28 1.152c.68-.224 1.35-.48 1.99-.752v3.904c0 .448-.23.672-.66.672-.38 0-.8-.032-1.21-.064l.24 1.12h1.37zm3.76-7.648v1.12h.96c.42 1.392 1.25 2.64 2.48 3.76-1.17.832-2.59 1.504-4.29 2.032l.63.976c1.81-.56 3.34-1.312 4.59-2.24 1.1.832 2.48 1.568 4.13 2.208l.62-.992c-1.55-.544-2.86-1.184-3.93-1.92 1.15-1.072 1.96-2.368 2.46-3.872v-1.072h-7.65zm2.02 1.12h4.49c-.49 1.184-1.24 2.224-2.25 3.12-1.09-.928-1.83-1.968-2.24-3.12zm-.79-7.328v2.128c0 1.088-.62 1.92-1.84 2.512l.77.88c1.47-.832 2.21-2 2.21-3.504v-.928h3.1v2.608c0 .928.5 1.408 1.52 1.408h1.64V246.6h-1.35c-.45 0-.67-.208-.67-.592v-3.44h-5.38z" fill="#1F2D3D"/><path d="M1144.66 247.944c.51 1.648 1.13 3.104 1.88 4.384-.92 1.296-2.14 2.352-3.68 3.184l.66 1.04c1.5-.864 2.72-1.936 3.68-3.216.99 1.408 2.19 2.512 3.58 3.312l.66-.976c-1.38-.768-2.58-1.872-3.58-3.312 1.15-1.904 1.77-4.208 1.87-6.896h1.18v-1.104h-4.72c.21-.704.39-1.472.53-2.288l-1.14-.192c-.44 2.704-1.29 4.864-2.54 6.464l.7.848c.32-.384.63-.8.92-1.248zm1.18-2.48h2.78c-.08 2.24-.56 4.192-1.45 5.84-.75-1.296-1.38-2.816-1.86-4.576.19-.4.37-.816.53-1.264zm-8.96-1.12v1.104h1.66v1.472c-.03 4.064-.68 7.024-2 8.864l.9.784c1.18-1.696 1.89-4.256 2.11-7.68h2.02c-.02 3.168-.08 5.072-.19 5.68-.12.528-.47.8-1.04.8-.36 0-.76-.016-1.2-.048l.25.992c.53.032.9.064 1.11.064 1.13 0 1.77-.464 1.93-1.376.15-.896.23-3.28.23-7.168h-3.06c0-.288.02-.592.02-.912v-1.472h3.88v-1.104h-2.4c-.25-.768-.62-1.616-1.07-2.544l-1.12.32c.39.72.74 1.456 1.03 2.224h-3.06z" fill="#1F2D3D"/><path d="M1116 215c0 6.627-5.37 12-12 12s-12-5.373-12-12 5.37-12 12-12 12 5.373 12 12z" fill="#00BF8B"/><path d="M1100 215a4 4 0 1 0 8 0 4 4 0 0 0-8 0z" fill="#CDEFE6"/><path d="M1103 202c0-.552.45-1 1-1s1 .448 1 1v3c0 .552-.45 1-1 1s-1-.448-1-1v-3z" fill="#1F2D3D"/><path d="M1090 215c0-.552.45-1 1-1h3c.55 0 1 .448 1 1s-.45 1-1 1h-3c-.55 0-1-.448-1-1z" fill="#1F2D3D"/><path d="M1113 215c0-.552.45-1 1-1h3c.55 0 1 .448 1 1s-.45 1-1 1h-3c-.55 0-1-.448-1-1z" fill="#1F2D3D"/><path d="M1103 225c0-.552.45-1 1-1s1 .448 1 1v3c0 .552-.45 1-1 1s-1-.448-1-1v-3z" fill="#1F2D3D"/><path d="M1116 215c0 6.627-5.37 12-12 12s-12-5.373-12-12 5.37-12 12-12 12 5.373 12 12z" fill="#00BF8B"/><path d="M1100 215a4 4 0 1 0 8 0 4 4 0 0 0-8 0z" fill="#CDEFE6"/><path d="M1103 202c0-.552.45-1 1-1s1 .448 1 1v3c0 .552-.45 1-1 1s-1-.448-1-1v-3z" fill="#1F2D3D"/><path d="M1090 215c0-.552.45-1 1-1h3c.55 0 1 .448 1 1s-.45 1-1 1h-3c-.55 0-1-.448-1-1z" fill="#1F2D3D"/><path d="M1113 215c0-.552.45-1 1-1h3c.55 0 1 .448 1 1s-.45 1-1 1h-3c-.55 0-1-.448-1-1z" fill="#1F2D3D"/><path d="M1103 225c0-.552.45-1 1-1s1 .448 1 1v3c0 .552-.45 1-1 1s-1-.448-1-1v-3z" fill="#1F2D3D"/><path d="M1077.38 336.832h-6.13c.32-.544.57-1.152.75-1.792l-1.17-.16c-.16.672-.43 1.312-.78 1.952h-3.43v12.752h1.17v-.992h8.42v.992h1.17v-12.752zm-9.59 10.656v-2.608h8.42v2.608h-8.42zm0-3.664v-2.448h8.42v2.448h-8.42zm0-3.504v-2.384h8.42v2.384h-8.42z" fill="#1F2D3D"/><path d="M1081.44 336.048v1.104h5.79v-1.104h-5.79zm-.62 4.32v1.12h2.22c-.8 2.912-1.44 4.688-1.92 5.344-.06.032-.14.064-.26.096l.28 1.088c1.98-.352 3.84-.832 5.53-1.44.16.368.32.752.48 1.168l.99-.512a42.442 42.442 0 0 0-2.16-4.48l-.97.48c.41.736.81 1.52 1.23 2.384-1.25.464-2.51.832-3.78 1.088.48-1.056 1.04-2.784 1.68-5.216h3.7v-1.12h-7.02zm9.42-5.392v3.232h-2.16v1.12h2.16v.192c-.03 4.304-1.06 7.424-3.06 9.36l.87.752c2.17-2.128 3.29-5.504 3.34-10.112v-.192h2.37c-.03 4.304-.1 6.88-.19 7.728-.13.912-.59 1.376-1.38 1.376-.43 0-.94-.032-1.52-.064l.26 1.024c.67.032 1.13.048 1.41.048 1.37 0 2.16-.656 2.32-1.952.14-1.184.22-4.272.22-9.28h-3.49v-3.232h-1.15z" fill="#1F2D3D"/><path d="M1101.55 334.816c-1.02 2.528-2.67 4.768-4.94 6.72l.37 1.2c.84-.704 1.63-1.456 2.35-2.24v9.136h1.15v-10.544a18.538 18.538 0 0 0 2.14-3.776l-1.07-.496zm7.38 14.528c.77 0 1.29-.192 1.58-.576.27-.384.47-1.504.58-3.344l-1.07-.352c-.07 1.584-.18 2.512-.36 2.768-.19.256-.51.4-.92.4h-2.6c-.54 0-.8-.256-.8-.752v-5.408c1.99-1.248 3.73-2.672 5.22-4.272l-.8-.912a22.65 22.65 0 0 1-4.42 3.824v-5.712h-1.15v6.416c-.81.48-1.68.912-2.57 1.328l.51 1.088c.7-.336 1.39-.688 2.06-1.072v4.88c0 1.12.56 1.696 1.68 1.696h3.06z" fill="#1F2D3D"/><path d="M1116.05 340.768v3.248h7.97v-3.248h-7.97zm6.89 2.368h-5.82v-1.472h5.82v1.472zm2.6 1.968h-10.92v4.512h1.12v-.656h8.69v.656h1.11v-4.512zm-9.8 2.88v-1.92h8.69v1.92h-8.69zm-2.62-11.952v1.008h3.6v.944h1.15v-.944h4.26v.944h1.15v-.944h3.6v-1.008h-3.6v-1.072h-1.15v1.072h-4.26v-1.072h-1.15v1.072h-3.6zm13.31 2.624h-12.86v3.072h1.1v-2.096h10.66v2.016h1.1v-2.992z" fill="#1F2D3D"/><path d="M1138.48 334.976v4.432h-3.04v10.144h1.15v-3.536h4.88v1.68c0 .496-.21.752-.61.752l-1.53-.048.3 1.104h1.6c.93 0 1.39-.528 1.39-1.552v-8.544h-3v-4.432h-1.14zm-1.89 8.288h4.88v1.76h-4.88v-1.76zm4.88-.992h-4.88v-1.776h4.88v1.776zm-5.47-6.688l-.98.464c.55.784 1.04 1.68 1.51 2.688l.93-.464c-.47-.976-.95-1.872-1.46-2.688zm6.08-.144a16 16 0 0 1-1.52 2.816l.94.48c.63-.928 1.14-1.872 1.54-2.848l-.96-.448zm-11.31-.48c-.45 1.92-1.17 3.68-2.16 5.28l.94.592c.58-.896 1.07-1.904 1.51-3.008h3.31v-1.088h-2.93c.16-.496.3-1.008.45-1.552l-1.12-.224zm-.48 5.008v1.04h1.02v2.016h-2.21v1.072h2.21v3.648c0 .208-.16.368-.48.48l.48.992c1.33-.352 2.5-.816 3.51-1.376l-.2-1.024c-.73.432-1.47.784-2.19 1.04v-3.76h2.21v-1.072h-2.21v-2.016h1.67v-1.04h-3.81z" fill="#1F2D3D"/><path d="M1095 298c0-1.105.9-2 2-2h14c1.1 0 2 .895 2 2v20c0 1.105-.9 2-2 2h-14c-1.1 0-2-.895-2-2v-20z" fill="#00BF8B"/><path d="M1099 317c0-.552.45-1 1-1h8c.55 0 1 .448 1 1s-.45 1-1 1h-8c-.55 0-1-.448-1-1z" fill="#CDEFE6"/><path d="M1092.17 299.013l10.89 5.081a1 1 0 0 1 0 1.812l-10.89 5.081c-.8.376-1.66-.406-1.36-1.242l1.69-4.745-1.69-4.745c-.3-.836.56-1.618 1.36-1.242z" fill="#1F2D3D"/><path d="M1064.86 433.608v1.04h2.23c-.51 1.632-1.38 3.104-2.56 4.4l.49 1.248c.9-1.152 1.6-2.448 2.13-3.856v6.16h1.11v-6.448c.48.704 1.05 1.616 1.72 2.752l.66-.976c-.8-1.008-1.58-1.936-2.38-2.768v-.512h1.92v-1.04h-1.92v-5.648h-1.11v5.648h-2.29zm4.71-4.608c-.1 1.312-.32 2.464-.66 3.456l.79.256c.38-1.056.64-2.256.73-3.6l-.86-.112zm-3.81.272l-.85.272c.29 1.056.53 2.144.72 3.28l.8-.192a45.485 45.485 0 0 0-.67-3.36zm8.72-1.36v1.056h-3.42v.944h3.42v1.072h-2.98v.928h2.98V433h-3.79v.96h8.64V433h-3.75v-1.088h2.88v-.928h-2.88v-1.072h3.33v-.944h-3.33v-1.056h-1.1zm-1.82 10.08h4.65v1.136h-4.65v-1.136zm4.65-.896h-4.65v-1.184h4.65v1.184zm-4.65 2.912h4.65v.96c0 .368-.17.56-.51.56l-1.09-.064.29 1.024h1.12c.86 0 1.31-.432 1.31-1.28v-6.24h-6.86v7.6h1.09v-2.56z" fill="#1F2D3D"/><path d="M1085.71 439.368c-1.41.608-3.07 1.088-4.96 1.44l.15 1.104c1.8-.368 3.4-.848 4.81-1.456v-1.088zm-2.53-11.472c-.57 1.936-1.24 3.648-2.03 5.136-.13.192-.29.336-.46.416l.29.992c.81-.128 1.63-.272 2.44-.432-.76 1.536-1.42 2.624-1.95 3.264-.14.128-.3.224-.49.304l.28 1.008c1.41-.192 2.9-.528 4.44-1.024v-1.024c-1.04.352-2.08.624-3.14.832.86-1.168 1.92-3.12 3.2-5.84l-1.01-.368c-.29.656-.57 1.264-.83 1.84-.64.128-1.28.24-1.9.336.75-1.248 1.48-2.928 2.22-5.024l-1.06-.416zm6.87 2.384v4.464h-2.59v-4.464h2.59zm0 5.504v4.64h-2.59v-4.64h2.59zm1.05 4.64v-4.64h2.58v4.64h-2.58zm0-5.68v-4.464h2.58v4.464h-2.58zm2.58 6.736v1.04h1.09v-13.312h-8.37v13.312h1.06v-1.04h6.22z" fill="#1F2D3D"/><path d="M1101.55 427.816c-1.02 2.528-2.67 4.768-4.94 6.72l.37 1.2c.84-.704 1.63-1.456 2.35-2.24v9.136h1.15v-10.544a18.538 18.538 0 0 0 2.14-3.776l-1.07-.496zm7.38 14.528c.77 0 1.29-.192 1.58-.576.27-.384.47-1.504.58-3.344l-1.07-.352c-.07 1.584-.18 2.512-.36 2.768-.19.256-.51.4-.92.4h-2.6c-.54 0-.8-.256-.8-.752v-5.408c1.99-1.248 3.73-2.672 5.22-4.272l-.8-.912a22.65 22.65 0 0 1-4.42 3.824v-5.712h-1.15v6.416c-.81.48-1.68.912-2.57 1.328l.51 1.088c.7-.336 1.39-.688 2.06-1.072v4.88c0 1.12.56 1.696 1.68 1.696h3.06z" fill="#1F2D3D"/><path d="M1113.97 428.088l-.8.752c1.17.928 2.08 1.776 2.75 2.576l.82-.816c-.76-.832-1.68-1.664-2.77-2.512zm9.34 14.224h3.71l.29-1.152c-.43.032-1.04.048-1.81.064-.8.016-1.58.032-2.35.032-1.23 0-2.25-.016-3.09-.032-.92-.032-1.64-.16-2.12-.384-.45-.208-.85-.544-1.24-1.008a2.462 2.462 0 0 0-.36-.352v-6h-3.36v1.056h2.28v4.864c-.67.288-1.42 1.104-2.28 2.448l.86.784c.9-1.472 1.54-2.208 1.92-2.208.19 0 .4.128.61.4.49.576 1.05.976 1.66 1.168.64.176 1.47.272 2.48.288 1.01.016 1.94.032 2.8.032zm-4.78-13.472v1.056h7.34v-1.056h-7.34zm-.98 3.632v1.104h3.36c-1.25 3.152-2.19 4.832-2.86 5.024l.29 1.008c2.84-.272 5.15-.608 6.91-1.024.19.448.37.928.53 1.424l1.02-.272c-.67-1.888-1.44-3.568-2.3-5.04l-.95.304c.47.832.9 1.696 1.28 2.592-1.36.32-3.07.608-5.15.832.7-.96 1.49-2.576 2.37-4.848h4.99v-1.104h-9.49z" fill="#1F2D3D"/><path d="M1132.05 433.768v3.248h7.97v-3.248h-7.97zm6.89 2.368h-5.82v-1.472h5.82v1.472zm2.6 1.968h-10.92v4.512h1.12v-.656h8.69v.656h1.11v-4.512zm-9.8 2.88v-1.92h8.69v1.92h-8.69zm-2.62-11.952v1.008h3.6v.944h1.15v-.944h4.26v.944h1.15v-.944h3.6v-1.008h-3.6v-1.072h-1.15v1.072h-4.26v-1.072h-1.15v1.072h-3.6zm13.31 2.624h-12.86v3.072h1.1v-2.096h10.66v2.016h1.1v-2.992z" fill="#1F2D3D"/><path d="M1091 394c0-3.314 2.69-6 6-6s6 2.686 6 6v6h-6c-3.31 0-6-2.686-6-6z" fill="#00BF8B"/><path d="M1105 394c0-3.314 2.69-6 6-6s6 2.686 6 6-2.69 6-6 6h-6v-6z" fill="#CDEFE6"/><path d="M1105 402h6c3.31 0 6 2.686 6 6s-2.69 6-6 6-6-2.686-6-6v-6z" fill="#1F2D3D"/><path d="M1091 408c0-3.314 2.69-6 6-6h6v6c0 3.314-2.69 6-6 6s-6-2.686-6-6z" fill="#69CDB1"/><path d="M1066.03 530.4v3.536h-3.85v1.12h8.92v-1.12h-3.88V530.4h3.15v-1.12h-7.47v1.12h3.13zm1.11-4.512c1.39.928 2.49 1.824 3.32 2.672l.85-.848c-.93-.848-2.08-1.696-3.42-2.544a9.247 9.247 0 0 0 1.73-2.608v-.912h-6.85v1.104h5.47c-1.15 2.048-3.23 3.648-6.22 4.768l.72.944c1.76-.688 3.23-1.552 4.4-2.576zm-5.12 6.16c-1.51.768-3.27 1.392-5.27 1.856l.16 1.104c1.89-.48 3.6-1.104 5.11-1.872v-1.088zm-2.55-11.136c-.62 1.856-1.36 3.52-2.21 4.96-.14.208-.3.352-.48.432l.29 1.056c.91-.128 1.83-.256 2.74-.4-.9 1.536-1.67 2.624-2.31 3.264-.14.128-.32.24-.51.32l.31 1.056c1.52-.208 3.1-.592 4.75-1.168v-1.056c-1.12.4-2.23.72-3.35.96.98-1.152 2.21-3.072 3.68-5.776l-1.05-.4a63.25 63.25 0 0 1-.95 1.776c-.75.128-1.48.224-2.22.288.82-1.216 1.62-2.832 2.42-4.88l-1.11-.432z" fill="#1F2D3D"/><path d="M1076.05 526.768v3.248h7.97v-3.248h-7.97zm6.89 2.368h-5.82v-1.472h5.82v1.472zm2.6 1.968h-10.92v4.512h1.12v-.656h8.69v.656h1.11v-4.512zm-9.8 2.88v-1.92h8.69v1.92h-8.69zm-2.62-11.952v1.008h3.6v.944h1.15v-.944h4.26v.944h1.15v-.944h3.6v-1.008h-3.6v-1.072h-1.15v1.072h-4.26v-1.072h-1.15v1.072h-3.6zm13.31 2.624h-12.86v3.072h1.1v-2.096h10.66v2.016h1.1v-2.992z" fill="#1F2D3D"/><path d="M1098.53 524.48h2.37c-.07 2.16-.4 4.048-1.03 5.664-.64-1.344-1.15-2.96-1.55-4.832l.21-.832zm.81 6.816a9.342 9.342 0 0 1-2.96 3.328l.6.96a10.76 10.76 0 0 0 2.96-3.216c.8 1.344 1.76 2.432 2.88 3.232l.62-.944c-1.15-.784-2.13-1.888-2.96-3.328.9-1.888 1.39-4.176 1.47-6.848h1.04v-1.104h-4.22c.13-.704.25-1.472.35-2.288l-1.12-.192c-.32 3.04-.96 5.456-1.9 7.248l.72.88c.33-.576.65-1.232.94-1.968.43 1.6.96 3.008 1.58 4.24zm-7.58-2.928c-.11.32-.24.656-.38 1.008h-2.34v1.008h1.89c-.32.64-.69 1.296-1.11 2 .79.288 1.52.592 2.23.896-.93.528-2.07.96-3.38 1.312l.55.96c1.6-.448 2.92-1.04 3.98-1.776.94.416 1.76.848 2.46 1.264l.63-.896a36.64 36.64 0 0 0-2.21-1.088 6.548 6.548 0 0 0 1.78-2.736v-.944h-3.35c.1-.288.21-.576.32-.88l-1.07-.128zm1.26 4.24c-.57-.24-1.18-.464-1.82-.688.32-.48.61-.992.86-1.536h2.76c-.39.832-1 1.584-1.8 2.224zm-2.72-11.376l-.91.304c.39.608.74 1.296 1.07 2.08l.84-.384c-.29-.704-.61-1.376-1-2zm4.87-.048c-.29.672-.71 1.344-1.22 2.032l.82.416c.51-.672.91-1.36 1.23-2.064l-.83-.384zm-6.1 2.816v1.008h2.27c-.48.88-1.34 1.68-2.57 2.4l.56.928c1.37-.928 2.33-2.016 2.86-3.28v3.04h1.07v-2.08c.58.384 1.27.896 2.07 1.536l.59-.896a36.91 36.91 0 0 0-2.66-1.472v-.176h2.92V524h-2.92v-3.056h-1.07V524h-3.12z" fill="#1F2D3D"/><path d="M1106.62 535.456c.9 0 1.35-.48 1.35-1.408v-4.672c.49-.224.99-.448 1.49-.704v-1.136c-.48.256-.98.496-1.49.72v-3.152h1.53V524h-1.53v-3.024h-1.12V524h-1.92v1.104h1.92v3.616c-.71.256-1.44.48-2.18.656l.29 1.12c.62-.192 1.25-.416 1.89-.656v3.92c0 .448-.21.688-.61.688-.38 0-.8-.032-1.22-.08l.24 1.088h1.36zm4.79-7.072h3.26v1.968H1112v5.248h1.07v-.784h4.34v.784h1.07v-5.248h-2.69v-1.968h3.43v-1.04h-3.43v-1.888h3.01v-3.888h-8.43v5.008c-.02 3.36-.59 6.112-1.73 8.224l.9.8c1.05-2.08 1.68-4.48 1.87-7.216zm3.26-2.928v1.888h-3.2c0-.256.02-.512.02-.768v-1.12h3.18zm-1.6 8.336v-2.416h4.34v2.416h-4.34zm4.61-11.152v1.776h-6.19v-1.776h6.19z" fill="#1F2D3D"/><path d="M1125.78 521.264a16.82 16.82 0 0 1-2.12 3.152 11.522 11.522 0 0 1-2.96 2.448l.63 1.008c1.33-.896 2.4-1.808 3.2-2.736.75-.848 1.5-1.936 2.25-3.264l-1-.608zm.52 7.136c-.33 1.504-.83 2.72-1.5 3.648-.75.96-1.87 1.84-3.34 2.64l.73.96c1.63-.912 2.87-1.936 3.68-3.088.69-1.024 1.22-2.416 1.6-4.16h3.99c-.08 2.496-.26 4.112-.55 4.88-.27.736-.83 1.104-1.69 1.104-.84 0-1.72-.016-2.64-.048l.32 1.136h2.91c.8-.048 1.37-.304 1.73-.768.36-.48.62-1.344.78-2.56.16-1.232.26-2.848.3-4.848h-9.55v1.104h3.23zm3.99-7.344l-.99.56c.97 2.528 2.7 4.592 5.18 6.192l.77-.912c-2.39-1.424-4.03-3.376-4.96-5.84z" fill="#1F2D3D"/><path d="M1140.42 527.232c.48.592 1.04 1.376 1.68 2.368l.62-.912a36.228 36.228 0 0 0-2.3-2.656v-.864h2.16v-1.104h-2.16v-3.136h-1.14v3.136h-2.34v1.104h2.28c-.52 2.016-1.38 3.824-2.6 5.392l.5 1.248c.9-1.328 1.62-2.8 2.16-4.432v8.176h1.14v-8.32zm9.74-6.24c-1.97.736-4.18 1.136-6.64 1.2v5.136c-.1 3.104-.82 5.536-2.13 7.296l.82.848c1.5-2.016 2.32-4.736 2.43-8.144v-.176h2.96v8.416h1.15v-8.416h2.39v-1.104h-6.5v-2.88c2.24-.112 4.27-.496 6.1-1.152l-.58-1.024z" fill="#1F2D3D"/><path fill-rule="evenodd" clip-rule="evenodd" d="M1100.55 498.168c.46.306.59.927.28 1.387l-4 6a.993.993 0 0 1-1.38.277.997.997 0 0 1-.28-1.387l4-6a.993.993 0 0 1 1.38-.277z" fill="#1F2D3D"/><path fill-rule="evenodd" clip-rule="evenodd" d="M1107.45 498.168a.997.997 0 0 0-.28 1.387l4 6c.3.459.93.583 1.38.277a.997.997 0 0 0 .28-1.387l-4-6a.993.993 0 0 0-1.38-.277z" fill="#1F2D3D"/><path d="M1092 484c0-1.105.9-2 2-2h20c1.1 0 2 .895 2 2v15c0 1.105-.9 2-2 2h-20c-1.1 0-2-.895-2-2v-15z" fill="#00BF8B"/><path fill-rule="evenodd" clip-rule="evenodd" d="M1111.65 486.241c.42.359.47.99.11 1.41l-6 7a1 1 0 0 1-1.54-.026l-3.22-4.024-3.22 4.024a.993.993 0 0 1-1.4.156.989.989 0 0 1-.16-1.406l4-5c.19-.237.48-.375.78-.375.3 0 .59.138.78.375l3.25 4.057 5.21-6.083a1 1 0 0 1 1.41-.108z" fill="#CDEFE6"/><path d="M1008 184h192v1h-192v-1z" fill="#1F2D3D"/><path d="M1008 277h192v1h-192v-1z" fill="#1F2D3D"/><path d="M1008 370h192v1h-192v-1z" fill="#1F2D3D"/><path d="M1008 463h192v1h-192v-1z" fill="#1F2D3D"/><path d="M1016 100h4v4h-4v-4z" fill="#1F2D3D"/><path d="M1188 544h4v4h-4v-4z" fill="#1F2D3D"/><path d="M0 100a8 8 0 0 1 8-8h176a8 8 0 0 1 8 8v448a8 8 0 0 1-8 8H8a8 8 0 0 1-8-8V100z" fill="#fff"/><path fill-rule="evenodd" clip-rule="evenodd" d="M184 93H8a7 7 0 0 0-7 7v448a7 7 0 0 0 7 7h176a7 7 0 0 0 7-7V100a7 7 0 0 0-7-7zM8 92a8 8 0 0 0-8 8v448a8 8 0 0 0 8 8h176a8 8 0 0 0 8-8V100a8 8 0 0 0-8-8H8z" fill="#00BF8B"/><path d="M69.68 149.088v12.72h-4.768v1.12h14.176v-1.12h-4.8v-12.72H73.12v12.72h-2.272v-12.72H69.68zM77.632 152c-.688 2.928-1.504 5.344-2.432 7.232l1.04.368c.976-2.096 1.776-4.528 2.416-7.312L77.632 152zm-11.344-.032l-.976.32a59.91 59.91 0 0 1 2.16 7.392l1.056-.272c-.656-2.8-1.408-5.28-2.24-7.44z" fill="#00BF8B"/><path d="M85.504 148.88c-.672 1.6-1.984 2.944-3.904 4.048l.704.928a13.527 13.527 0 0 0 2-1.488c.768.672 1.6 1.28 2.496 1.808-1.76.704-3.792 1.216-6.112 1.536l.528 1.088c2.592-.4 4.88-1.056 6.832-1.952 1.984.992 4.24 1.632 6.768 1.92l.528-1.072c-2.224-.224-4.24-.72-6.048-1.488 1.472-.832 2.72-1.84 3.744-3.024v-.928h-6.976c.224-.384.432-.784.608-1.216l-1.168-.16zm2.528 4.736a15.096 15.096 0 0 1-2.96-2.016l.208-.256h6.112a14.387 14.387 0 0 1-3.36 2.272zM87.056 156a8.39 8.39 0 0 1-.192 1.824h-5.088v1.04h4.768c-.128.32-.304.624-.496.912-.832 1.168-2.576 2.144-5.2 2.912l.768.944c2.944-.928 4.816-2.128 5.632-3.568.208-.384.384-.784.512-1.2h4.736c-.048 1.6-.192 2.592-.432 2.976-.256.384-.848.592-1.808.608l-1.888-.08.288 1.04c.736.032 1.36.064 1.872.064 1.136 0 1.936-.272 2.4-.8.464-.528.704-2.144.736-4.848h-5.632c.096-.576.16-1.184.16-1.824h-1.136z" fill="#00BF8B"/><path d="M103.408 163.552c.896 0 1.36-.464 1.36-1.36v-4.288c1.376-.112 2.608-.224 3.712-.352.384.56.736 1.104 1.04 1.648l.928-.656c-.704-1.136-1.712-2.464-3.024-4l-.864.528c.432.512.848 1.04 1.248 1.552-1.856.224-4.096.4-6.704.544 2.016-1.056 4.368-2.768 7.072-5.152l-1.056-.528a53.012 53.012 0 0 1-2.224 1.904c-1.312.112-2.608.208-3.888.272 1.024-.672 2.032-1.568 3.024-2.72 2.272-.176 4.224-.464 5.888-.848l-.56-.976c-3.04.672-6.864 1.008-11.456 1.008l.336 1.008c1.536 0 2.976-.032 4.336-.096-1.088 1.184-2.032 1.968-2.832 2.368-.24.096-.496.176-.784.208l.24 1.024c1.6-.096 3.104-.192 4.496-.304-1.632 1.216-3.104 2.112-4.416 2.688-.304.096-.64.176-1.008.208l.32 1.024c1.808-.08 3.472-.176 5.008-.272v3.92c0 .384-.208.592-.592.592-.528 0-1.072-.032-1.648-.08l.256 1.136h1.792zm3.552-4.672l-.768.736c1.696 1.28 3.024 2.48 4 3.6l.816-.816c-1.088-1.184-2.432-2.352-4.048-3.52zm-6.096.112c-1.056 1.216-2.368 2.288-3.936 3.216l.72.928c1.6-.976 2.944-2.112 4.032-3.424l-.816-.72z" fill="#00BF8B"/><path d="M118.112 159.952c-1.472.736-3.184 1.312-5.136 1.744l.144 1.152c1.856-.448 3.52-1.056 4.992-1.792v-1.104zm-2.56-11.056c-.64 1.888-1.376 3.552-2.24 5.008-.16.224-.32.368-.512.448l.304 1.056c.88-.128 1.76-.288 2.624-.448-.88 1.536-1.632 2.608-2.24 3.248-.144.128-.32.256-.528.352l.32 1.056c1.536-.256 3.152-.72 4.832-1.424v-1.072c-1.136.496-2.256.88-3.376 1.168.928-1.152 2.096-3.056 3.504-5.712l-1.04-.4a82.138 82.138 0 0 1-.88 1.712c-.704.128-1.408.256-2.112.352.832-1.216 1.648-2.848 2.448-4.896l-1.104-.448zm3.104 7.024c2.336-.176 4.496-.416 6.48-.736.272.416.512.816.736 1.232l.896-.624c-.592-1.056-1.44-2.272-2.528-3.664l-.88.544c.4.512.784 1.04 1.136 1.552-1.472.24-2.96.416-4.448.544.544-.64 1.168-1.648 1.872-3.04h4.896v-1.104h-3.6a21.29 21.29 0 0 0-.704-1.84l-1.168.192c.256.496.496 1.04.72 1.648h-4.08v1.104h2.736c-.864 1.664-1.552 2.688-2.096 3.088-.064.016-.128.048-.224.08l.256 1.024zm1.296.656c-.064 1.808-.288 3.12-.672 3.952-.4.816-1.072 1.52-2.016 2.128l.736.912c1.088-.704 1.856-1.552 2.32-2.544.416-.944.672-2.432.752-4.448h-1.12zm5.696 6.736c.704-.032 1.152-.224 1.36-.544.208-.352.32-1.296.32-2.8l-.992-.352c0 .944-.048 1.632-.112 2.08-.064.352-.272.544-.624.576h-1.04c-.256-.032-.368-.208-.368-.544v-5.296h-1.104v5.488c0 .928.48 1.392 1.44 1.392h1.12z" fill="#00BF8B"/><path d="M96 129a1 1 0 0 1 1-1h2a1 1 0 0 1 1 1v5a1 1 0 0 1-1 1h-2a1 1 0 0 1-1-1v-5z" fill="#69CDB1"/><path d="M85 115a2 2 0 0 1 2-2h22a2 2 0 0 1 2 2v14a2 2 0 0 1-2 2H87a2 2 0 0 1-2-2v-14z" fill="#00BF8B"/><path d="M90 134a1 1 0 0 1 1-1h14a1 1 0 0 1 0 2H91a1 1 0 0 1-1-1z" fill="#1F2D3D"/><path d="M97 118a1 1 0 0 1 2 0v8a1 1 0 0 1-2 0v-8z" fill="#CDEFE6"/><path d="M92 122a1 1 0 0 1 2 0v4a1 1 0 0 1-2 0v-4z" fill="#CDEFE6"/><path d="M103 119a1 1 0 0 0-1 1v6a1 1 0 0 0 2 0v-6a1 1 0 0 0-1-1z" fill="#CDEFE6"/><path d="M26.637 243.576L22.14 255h1.408l1.216-3.2h5.248l1.216 3.2h1.424l-4.496-11.424h-1.52zm-1.456 7.12l2.192-5.712h.064l2.16 5.712H25.18z" fill="#00BF8B"/><path d="M37.6 246.504c-1.248 0-2.16.528-2.752 1.584v-1.36h-1.2v11.44h1.28v-4.672c.64 1.152 1.552 1.728 2.736 1.728 1.184 0 2.096-.448 2.768-1.312.608-.8.928-1.808.928-3.024 0-1.248-.32-2.256-.944-3.056-.688-.896-1.632-1.328-2.816-1.328zm-.16 1.056c.88 0 1.552.32 2.016.992.384.576.592 1.36.592 2.336 0 .992-.208 1.776-.624 2.352-.464.608-1.136.928-2.032.928-.768 0-1.36-.304-1.808-.88-.48-.592-.704-1.36-.704-2.32v-.16c0-.928.208-1.696.624-2.272.448-.656 1.104-.976 1.936-.976z" fill="#00BF8B"/><path d="M46.975 246.504c-1.248 0-2.16.528-2.752 1.584v-1.36h-1.2v11.44h1.28v-4.672c.64 1.152 1.552 1.728 2.736 1.728 1.184 0 2.096-.448 2.768-1.312.608-.8.928-1.808.928-3.024 0-1.248-.32-2.256-.944-3.056-.688-.896-1.632-1.328-2.816-1.328zm-.16 1.056c.88 0 1.552.32 2.016.992.384.576.592 1.36.592 2.336 0 .992-.208 1.776-.624 2.352-.464.608-1.136.928-2.032.928-.768 0-1.36-.304-1.808-.88-.48-.592-.704-1.36-.704-2.32v-.16c0-.928.208-1.696.624-2.272.448-.656 1.104-.976 1.936-.976z" fill="#00BF8B"/><path d="M54.174 252.76l-.72.672c.592.448 1.184.976 1.776 1.616.512.544.976 1.088 1.36 1.632l.8-.672a13.906 13.906 0 0 0-1.376-1.648 12.634 12.634 0 0 0-1.84-1.6z" fill="#00BF8B"/><path d="M67.486 243.576L70.766 255h1.456l2.608-9.52h.048L77.47 255h1.456l3.28-11.424h-1.472l-2.512 9.584h-.064l-2.592-9.584h-1.424l-2.608 9.584h-.064l-2.512-9.584h-1.472z" fill="#00BF8B"/><path d="M86.681 246.504c-1.2 0-2.144.432-2.848 1.296-.704.816-1.04 1.84-1.04 3.056 0 1.344.352 2.4 1.088 3.2.704.768 1.664 1.168 2.848 1.168 1.072 0 1.952-.32 2.64-.928.56-.512.928-1.152 1.12-1.952h-1.28c-.208.576-.48 1.008-.832 1.296-.416.336-.976.512-1.648.512-.784 0-1.408-.256-1.856-.768-.448-.512-.688-1.232-.752-2.16h6.528c-.032-1.44-.352-2.576-.96-3.376-.672-.896-1.68-1.344-3.008-1.344zm.032 1.072c1.568 0 2.448.88 2.608 2.656h-5.168c.08-.816.336-1.456.784-1.936s1.04-.72 1.776-.72z" fill="#00BF8B"/><path d="M92.148 243.352V255h1.2v-1.36c.56 1.056 1.472 1.584 2.752 1.584 1.2 0 2.144-.448 2.832-1.312.608-.8.928-1.824.928-3.072 0-1.216-.32-2.208-.928-3.008-.672-.896-1.6-1.328-2.768-1.328-1.184 0-2.096.576-2.736 1.744v-4.896h-1.28zm3.744 4.208c.896 0 1.568.32 2.032.96.416.56.624 1.328.624 2.32 0 .992-.208 1.776-.592 2.352-.448.64-1.12.976-2.016.976-.832 0-1.488-.32-1.936-.96-.416-.576-.624-1.328-.624-2.256v-.16c0-.96.224-1.744.704-2.336.448-.608 1.056-.896 1.808-.896z" fill="#00BF8B"/><path d="M108.515 246.648v1.008h4.768v1.552h-6.544v1.008h9.984v1.536h-9.04v1.008h9.04V255c0 .384-.224.592-.672.592-.672 0-1.392-.032-2.16-.08l.24 1.088h2.32c.944 0 1.424-.448 1.424-1.328v-2.512h2.4v-1.008h-2.4v-1.536h3.088v-1.008h-6.528v-1.552h4.704v-1.008h-4.704v-1.008h-1.152v1.008h-4.768zm1.872 6.56l-.928.576c.832.832 1.504 1.584 2 2.272l.896-.624c-.448-.64-1.104-1.392-1.968-2.224zm-1.296-9.136h.64c.448.624.848 1.264 1.168 1.936l1.04-.384c-.256-.48-.592-.992-1.008-1.552h2.704v-.976h-4.096c.128-.32.24-.656.368-1.008l-1.088-.24a10.947 10.947 0 0 1-2.048 3.632l.992.624c.496-.608.944-1.296 1.328-2.032zm6.496-.048h.944c.48.624.88 1.264 1.216 1.936l.992-.368a9.771 9.771 0 0 0-1.008-1.568h2.896v-.976h-4.608c.112-.32.224-.656.32-.992l-1.088-.224a9.125 9.125 0 0 1-1.52 3.056l.96.608c.32-.448.624-.928.896-1.472z" fill="#00BF8B"/><path d="M129.795 241.88c-1.408 1.536-3.536 2.56-6.384 3.104l.672 1.056c1.712-.384 3.184-.944 4.432-1.68h4.672c-.896 1.312-2.192 2.32-3.856 2.992a17.135 17.135 0 0 0-1.632-1.76l-1.008.48a15.61 15.61 0 0 1 1.568 1.664c-1.152.336-2.432.544-3.872.64l.496 1.04c4.672-.368 7.888-2.096 9.616-5.168v-.912h-4.592c.32-.288.624-.592.912-.912l-1.024-.544zm-.608 10l-1.024.48a17.072 17.072 0 0 1 1.696 1.952c-1.808.608-3.968.912-6.464.928l.464 1.104c6.208-.144 10.432-2.096 12.704-5.872v-.912h-4.384c.448-.336.848-.704 1.232-1.088l-.992-.544c-1.664 1.76-4.24 2.832-7.728 3.184l.688 1.024c1.936-.336 3.6-.848 5.008-1.52h4.736c-1.024 1.408-2.416 2.512-4.192 3.28a21.318 21.318 0 0 0-1.744-2.016z" fill="#00BF8B"/><path d="M143.795 253.432c-1.488.544-3.216.992-5.184 1.312l.16 1.2c1.872-.352 3.552-.8 5.024-1.344v-1.168zm-2.56-11.552c-.64 1.856-1.376 3.488-2.24 4.928-.128.208-.288.352-.464.416l.272 1.056c.88-.128 1.76-.288 2.64-.448-.832 1.568-1.536 2.672-2.128 3.328-.144.128-.32.24-.512.32l.304 1.056c1.28-.192 2.64-.56 4.048-1.088v-1.04a22.05 22.05 0 0 1-2.704.864c.928-1.216 2.096-3.28 3.52-6.192l-1.008-.368c-.352.736-.688 1.44-1.008 2.096-.688.128-1.376.24-2.064.32.832-1.216 1.632-2.816 2.416-4.832l-1.072-.416zm5.84 8.608l-.592.88c1.504.448 2.96 1.04 4.4 1.808l.576-.88a24.849 24.849 0 0 0-4.384-1.808zm-1.936 2.72l-.64.96c2.4.592 4.752 1.408 7.04 2.432l.608-.96c-2.112-.96-4.448-1.76-7.008-2.432zm1.52-11.328a9.496 9.496 0 0 1-2.816 4.576l.72.944c.48-.448.928-.928 1.328-1.44a16.327 16.327 0 0 0 1.904 1.888c-1.248.992-2.672 1.744-4.304 2.256l.56 1.024c1.76-.608 3.296-1.456 4.624-2.56 1.2.928 2.544 1.728 4.016 2.368l.592-1.04a19.245 19.245 0 0 1-3.808-2.08c.96-.976 1.776-2.112 2.464-3.424v-.944h-4.592c.176-.448.336-.928.48-1.424l-1.168-.144zm1.936 5.264a15.759 15.759 0 0 1-2.096-2.032c.096-.176.208-.352.32-.544h3.808a13.487 13.487 0 0 1-2.032 2.576z" fill="#00BF8B"/><path d="M154.547 244.6v1.088h5.056V244.6h-1.872a40.325 40.325 0 0 0-.672-2.48l-1.152.192c.272.688.512 1.456.736 2.288h-2.096zm1.312 2.032l-.944.304c.368 2 .672 4.08.912 6.24l.944-.24c-.272-2.368-.576-4.48-.912-6.304zm3.728 6.448c-.416.16-.864.304-1.312.464a69.62 69.62 0 0 0 .88-6.976l-1.04-.144a77.897 77.897 0 0 1-.832 7.424c-.896.256-1.824.464-2.768.624l.288 1.136c1.712-.384 3.312-.848 4.784-1.424v-1.104zm7.6-8.048h-2.176v-3.072h-1.12v3.072h-2.128v-2.448h-1.104v3.456h7.616v-3.456h-1.088v2.448zm-7.216 2.352v1.056h3.76a8.458 8.458 0 0 1-.448 1.536h-2.848v6.56h1.04V251h1.408v5.296h.976V251h1.296v5.28h.976V251h1.44v4.112c0 .288-.112.432-.32.432l-.656-.048.272 1.04h.736c.672 0 1.008-.4 1.008-1.2v-5.36h-4.208c.192-.496.352-1.008.464-1.536h4.208v-1.056h-9.104z" fill="#00BF8B"/><path d="M93 219a1 1 0 0 1 1-1h2a1 1 0 0 1 1 1v5a1 1 0 0 1-1 1h-2a1 1 0 0 1-1-1v-5z" fill="#69CDB1"/><path d="M82 205a2 2 0 0 1 2-2h22a2 2 0 0 1 2 2v14a2 2 0 0 1-2 2H84a2 2 0 0 1-2-2v-14z" fill="#00BF8B"/><path d="M87 224a1 1 0 0 1 1-1h14a1 1 0 0 1 0 2H88a1 1 0 0 1-1-1z" fill="#1F2D3D"/><path d="M98 212a1 1 0 0 1 1-1h10a1 1 0 0 1 1 1v14a1 1 0 0 1-1 1H99a1 1 0 0 1-1-1v-14z" fill="#CDEFE6"/><path d="M101 224.5a.5.5 0 0 1 .5-.5h5a.5.5 0 0 1 0 1h-5a.5.5 0 0 1-.5-.5z" fill="#69CDB1"/><path d="M63.552 340.208v1.536h-4.96l-.736 3.632h4.384c-.96 1.072-2.72 2.032-5.28 2.88l.656 1.056c2.88-1.088 4.832-2.4 5.888-3.936h.048v4.24h1.12v-4.24h4.608c0 .864-.048 1.456-.144 1.776-.128.352-.432.544-.912.544-.64 0-1.344-.016-2.08-.048l.288 1.088c.64.016 1.296.032 1.968.032.864-.016 1.424-.288 1.68-.832.24-.48.368-1.68.368-3.568h-5.776V342.8h5.216v-3.648H58.224v1.056h5.328zm0 2.592v1.568h-4.336l.384-1.568h3.952zm1.12-1.056v-1.536h4.032v1.536h-4.032zm-5.504-4.688h.976c.448.56.832 1.136 1.152 1.728l1.04-.384a9.753 9.753 0 0 0-.96-1.344h2.64v-1.008H59.76c.144-.32.288-.64.432-.992l-1.104-.24c-.464 1.184-1.2 2.256-2.224 3.232l1.008.624c.48-.496.912-1.04 1.296-1.616zm6.752-.048h1.104c.448.576.848 1.168 1.168 1.792l1.024-.384c-.24-.432-.56-.896-.96-1.408h2.896V336h-4.72c.128-.304.256-.624.368-.944l-1.104-.24a9.326 9.326 0 0 1-1.952 3.248l.992.624a10.55 10.55 0 0 0 1.184-1.68z" fill="#00BF8B"/><path d="M73.968 336.144v1.12h12.096v-1.12H73.968zm1.072 5.536v1.12h9.936v-1.12H75.04zm-2.256 5.92v1.152h14.432V347.6H72.784z" fill="#00BF8B"/><path d="M89.04 337.296v1.104h4.464a137.36 137.36 0 0 1-.096 2.32c-.08 1.52-.384 2.896-.928 4.128-.56 1.232-1.696 2.56-3.392 4l.832.8c1.408-1.136 2.496-2.384 3.28-3.76a10.884 10.884 0 0 0 1.184-3.52h5.6c-.032 2.208-.08 3.664-.176 4.336-.192 1.12-.688 1.696-1.504 1.728-.56 0-1.248-.016-2.08-.048l.352 1.04c.704.032 1.328.064 1.84.064 1.264-.048 2.048-.752 2.368-2.112.208-.896.336-2.928.368-6.096h-6.64v-.032l.144-2.848h8.432v-1.104h-5.984c-.384-.944-.8-1.76-1.248-2.432l-1.088.4c.464.64.848 1.328 1.168 2.032H89.04z" fill="#00BF8B"/><path d="M105.552 335.648v1.12h5.792v6.048h-6.432v1.104h6.432v5.664h1.184v-5.664h6.56v-1.104h-6.56v-6.048h5.952v-1.12h-12.928zm1.952 2.144l-1.072.528a29.14 29.14 0 0 1 1.728 3.664l1.072-.528a37.306 37.306 0 0 0-1.728-3.664zm9.072-.08c-.464 1.216-1.088 2.432-1.872 3.68l1.024.528c.784-1.216 1.424-2.448 1.904-3.712l-1.056-.496z" fill="#00BF8B"/><path d="M133.344 342.944h-10.688v6.672h1.168v-.8h8.352v.8h1.168v-6.672zm-9.52 4.768v-3.664h8.352v3.664h-8.352zm-2.304-6.416c4.16-.16 7.92-.384 11.296-.688.384.608.784 1.232 1.184 1.904l1.12-.544a40.686 40.686 0 0 0-3.84-5.312l-1.04.496c.64.736 1.264 1.552 1.872 2.416a171.03 171.03 0 0 1-8.736.592c1.44-1.184 2.896-2.816 4.336-4.864l-1.184-.4c-2.08 3.056-3.824 4.832-5.232 5.312l.224 1.088z" fill="#00BF8B"/><path d="M97.27 308.885a7 7 0 1 0-7.54-3.77 7 7 0 0 1 7.54 3.77z" fill="#00BF8B"/><path d="M95 309.101A6.979 6.979 0 0 0 93 314c0 1.907.763 3.636 2 4.899a7 7 0 1 1 0-9.798z" fill="#1F2D3D"/><path d="M95.73 310.885a7 7 0 1 0 7.54-3.77 6.999 6.999 0 0 1-7.54 3.77z" fill="#69CDB1"/><path d="M54.368 439.416c-1.568.608-3.408 1.104-5.52 1.456l.144 1.12c2.016-.368 3.808-.864 5.376-1.472v-1.104zm-2.848-11.568c-.64 1.904-1.392 3.6-2.256 5.072-.144.208-.304.352-.48.416l.272 1.056c.896-.112 1.792-.224 2.672-.352-.832 1.488-1.552 2.544-2.144 3.152-.144.128-.32.24-.528.336l.32 1.056c1.536-.208 3.136-.592 4.816-1.136v-1.04a27.554 27.554 0 0 1-3.456.912c.928-1.136 2.112-3.056 3.52-5.76l-1.024-.384c-.32.64-.64 1.248-.928 1.824-.72.112-1.44.208-2.16.272.832-1.248 1.664-2.912 2.48-4.992l-1.104-.432zm10.608 2.912l-3.984.56v-3.392h-1.152v3.552l-2.448.352.176 1.056 2.304-.336c.016.768.064 1.504.144 2.192l-2.896.464.16 1.088 2.88-.464c.064.416.128.816.224 1.232.192.864.432 1.632.736 2.336-1.184.88-2.512 1.552-3.984 2.032l.672.928a12.547 12.547 0 0 0 3.824-1.952c.096.208.224.4.368.592.688.96 1.408 1.44 2.176 1.472.832 0 1.472-1.072 1.92-3.184l-.976-.64c-.288 1.712-.656 2.576-1.072 2.576-.416 0-.88-.4-1.408-1.184-.064-.096-.112-.208-.176-.304.992-.864 1.904-1.92 2.752-3.152l-.912-.624a14.594 14.594 0 0 1-2.304 2.72 15.44 15.44 0 0 1-.576-2.192 11.418 11.418 0 0 1-.128-.832l4.288-.672-.176-1.088-4.24.672a42.576 42.576 0 0 1-.144-2.176l4.112-.576-.16-1.056zm-2.192-2.88l-.896.56c.8.736 1.44 1.424 1.888 2.048l.896-.624c-.448-.56-1.072-1.216-1.888-1.984z" fill="#00BF8B"/><path d="M70.656 427.928v12.912h-5.76v1.12h14.24v-1.12H71.84v-6.848h5.936v-1.12H71.84v-4.944h-1.184z" fill="#00BF8B"/><path d="M88.416 427.688l-1.264.224c.32.512.624 1.088.88 1.712H82.08v4.688c-.032 3.232-.512 5.744-1.408 7.568l.944.848c1.04-2.112 1.584-4.912 1.648-8.416v-3.584H95.12v-1.104h-5.824c-.288-.72-.576-1.36-.88-1.936z" fill="#00BF8B"/><path d="M109.264 436.696H98.832v5.888H100v-.848h8.096v.848h1.168v-5.888zM100 440.648V437.8h8.096v2.848H100zm-.208-9.36h3.824v2.592h-6.848v1.136h14.464v-1.136h-6.448v-2.592h5.232v-1.104h-5.232v-2.272h-1.168v2.272h-3.136c.32-.592.576-1.216.784-1.888l-1.152-.128c-.512 1.68-1.504 3.104-2.944 4.256l.688.912a11.647 11.647 0 0 0 1.936-2.048z" fill="#00BF8B"/><path d="M114.592 442.424c.928 0 1.408-.48 1.408-1.44v-4.72a36.38 36.38 0 0 0 1.744-.928v-1.184c-.576.352-1.152.672-1.744.96v-3.136h1.824v-1.104H116v-2.928h-1.152v2.928h-1.952v1.104h1.952v3.648c-.736.304-1.504.56-2.272.768l.288 1.152c.672-.224 1.344-.48 1.984-.752v3.904c0 .448-.224.672-.656.672-.384 0-.8-.032-1.216-.064l.24 1.12h1.376zm3.76-7.648v1.12h.96c.416 1.392 1.248 2.64 2.48 3.76-1.168.832-2.592 1.504-4.288 2.032l.624.976c1.808-.56 3.344-1.312 4.592-2.24 1.104.832 2.48 1.568 4.128 2.208l.624-.992c-1.552-.544-2.864-1.184-3.936-1.92a9.087 9.087 0 0 0 2.464-3.872v-1.072h-7.648zm2.016 1.12h4.496c-.496 1.184-1.248 2.224-2.256 3.12-1.088-.928-1.824-1.968-2.24-3.12zm-.784-7.328v2.128c0 1.088-.624 1.92-1.84 2.512l.768.88c1.472-.832 2.208-2 2.208-3.504v-.928h3.104v2.608c0 .928.496 1.408 1.52 1.408h1.632V432.6h-1.344c-.448 0-.672-.208-.672-.592v-3.44h-5.376z" fill="#00BF8B"/><path d="M136.656 433.944c.512 1.648 1.136 3.104 1.888 4.384-.928 1.296-2.144 2.352-3.68 3.184l.656 1.04c1.504-.864 2.72-1.936 3.68-3.216.992 1.408 2.192 2.512 3.584 3.312l.656-.976c-1.376-.768-2.576-1.872-3.584-3.312 1.152-1.904 1.776-4.208 1.872-6.896h1.184v-1.104h-4.72c.208-.704.384-1.472.528-2.288l-1.136-.192c-.448 2.704-1.296 4.864-2.544 6.464l.704.848c.32-.384.624-.8.912-1.248zm1.184-2.48h2.784c-.08 2.24-.56 4.192-1.456 5.84-.752-1.296-1.376-2.816-1.856-4.576.192-.4.368-.816.528-1.264zm-8.96-1.12v1.104h1.664v1.472c-.032 4.064-.688 7.024-2 8.864l.896.784c1.184-1.696 1.888-4.256 2.112-7.68h2.016c-.016 3.168-.08 5.072-.192 5.68-.112.528-.464.8-1.04.8-.352 0-.752-.016-1.2-.048l.256.992c.528.032.896.064 1.104.064 1.136 0 1.776-.464 1.936-1.376.144-.896.224-3.28.224-7.168H131.6c0-.288.016-.592.016-.912v-1.472h3.888v-1.104h-2.4c-.256-.768-.624-1.616-1.072-2.544l-1.12.32c.384.72.736 1.456 1.024 2.224h-3.056z" fill="#00BF8B"/><path d="M83 392a2 2 0 0 1 2-2h22a2 2 0 0 1 2 2v2H83v-2z" fill="#1F2D3D"/><path d="M83 394h26v16a2 2 0 0 1-2 2H85a2 2 0 0 1-2-2v-16z" fill="#00BF8B"/><path d="M91.215 399L88 407h1.472l.765-2.006h3.521l.766 2.006h1.472l-3.215-8h-1.566zm-.565 4.919l1.33-3.507h.047l1.32 3.507H90.65z" fill="#CDEFE6"/><path d="M96.817 399v8h3.073c1.366 0 2.391-.359 3.097-1.076.671-.683 1.013-1.658 1.013-2.924 0-1.277-.342-2.252-1.013-2.924-.706-.717-1.731-1.076-3.097-1.076h-3.073zm1.378 1.12h1.436c1.048 0 1.814.225 2.296.684.471.448.707 1.188.707 2.196 0 .986-.236 1.714-.707 2.185-.482.459-1.248.695-2.296.695h-1.436v-5.76z" fill="#CDEFE6"/><path opacity=".4" fill-rule="evenodd" clip-rule="evenodd" d="M87 392a1 1 0 1 1-2 0 1 1 0 0 1 2 0zm3 0a1 1 0 1 1-2 0 1 1 0 0 1 2 0zm2 1a1 1 0 1 0 0-2 1 1 0 0 0 0 2z" fill="#fff"/><path d="M70.368 532.416c-1.568.608-3.408 1.104-5.52 1.456l.144 1.12c2.016-.368 3.808-.864 5.376-1.472v-1.104zm-2.848-11.568c-.64 1.904-1.392 3.6-2.256 5.072-.144.208-.304.352-.48.416l.272 1.056c.896-.112 1.792-.224 2.672-.352-.832 1.488-1.552 2.544-2.144 3.152-.144.128-.32.24-.528.336l.32 1.056c1.536-.208 3.136-.592 4.816-1.136v-1.04a27.554 27.554 0 0 1-3.456.912c.928-1.136 2.112-3.056 3.52-5.76l-1.024-.384c-.32.64-.64 1.248-.928 1.824-.72.112-1.44.208-2.16.272.832-1.248 1.664-2.912 2.48-4.992l-1.104-.432zm10.608 2.912l-3.984.56v-3.392h-1.152v3.552l-2.448.352.176 1.056 2.304-.336c.016.768.064 1.504.144 2.192l-2.896.464.16 1.088 2.88-.464c.064.416.128.816.224 1.232.192.864.432 1.632.736 2.336-1.184.88-2.512 1.552-3.984 2.032l.672.928a12.547 12.547 0 0 0 3.824-1.952c.096.208.224.4.368.592.688.96 1.408 1.44 2.176 1.472.832 0 1.472-1.072 1.92-3.184l-.976-.64c-.288 1.712-.656 2.576-1.072 2.576-.416 0-.88-.4-1.408-1.184-.064-.096-.112-.208-.176-.304.992-.864 1.904-1.92 2.752-3.152l-.912-.624a14.594 14.594 0 0 1-2.304 2.72 15.44 15.44 0 0 1-.576-2.192 11.418 11.418 0 0 1-.128-.832l4.288-.672-.176-1.088-4.24.672a42.576 42.576 0 0 1-.144-2.176l4.112-.576-.16-1.056zm-2.192-2.88l-.896.56c.8.736 1.44 1.424 1.888 2.048l.896-.624c-.448-.56-1.072-1.216-1.888-1.984z" fill="#00BF8B"/><path d="M80.88 521.776v1.136h6.112v12.72h1.168v-9.088c1.44.768 3.232 1.856 5.36 3.264l.688-1.024a65.737 65.737 0 0 0-6.048-3.456v-2.416h6.944v-1.136H80.88z" fill="#00BF8B"/><path d="M109.76 526.672v-3.024h-6.384v-1.168h7.216v-.992h-8.336v7.376h8.48v-.992h-7.36v-1.2h6.384zm-6.384-2.112h5.296v1.216h-5.296v-1.216zm-1.152 6.928c-.96 1.072-2.8 2.032-5.488 2.88l.656 1.072c2.88-1.088 4.816-2.416 5.824-3.952h.256v4.128h1.12v-4.128h.256c1.152 1.568 3.12 2.848 5.936 3.808l.528-1.104c-2.464-.672-4.272-1.568-5.44-2.704h5.136v-1.024h-6.416v-1.104h-1.12v1.104H97.04v1.024h5.184zM98.4 521.072l-.576.848c.976.384 1.92.896 2.848 1.568l.576-.88a13.863 13.863 0 0 0-2.848-1.536zm-.736 2.32l-.576.864c.8.32 1.6.752 2.384 1.296l.592-.912a14.15 14.15 0 0 0-2.4-1.248zm2.944 2.112a17.636 17.636 0 0 1-3.52 3.12l.784.88c1.248-.896 2.448-2 3.6-3.344l-.864-.656z" fill="#00BF8B"/><path d="M117.328 522.704v1.072h4a8.035 8.035 0 0 1-.4 1.296h-2.56v7.712h7.584v-7.712h-3.808c.16-.416.304-.848.416-1.296h4.48v-1.072h-2.72c.32-.416.608-.896.88-1.44l-1.12-.384a12.7 12.7 0 0 1-1.024 1.824h-1.888a9.893 9.893 0 0 0-.976-1.792l-1.072.4c.32.432.608.896.864 1.392h-2.656zm7.536 9.056h-5.408v-1.328h5.408v1.328zm-5.408-2.256v-1.216h5.408v1.216h-5.408zm0-2.144v-1.264h5.408v1.264h-5.408zm-5.44-6.176l-.784.752c1.168.896 2.08 1.744 2.752 2.544l.816-.8c-.752-.832-1.68-1.664-2.784-2.496zm9.328 14.128h3.664l.272-1.152c-.416.032-1.024.048-1.792.064-.784.016-1.552.032-2.304.032-1.248 0-2.288-.016-3.12-.032-.944-.032-1.664-.16-2.16-.384-.432-.208-.848-.544-1.232-1.008a2.721 2.721 0 0 0-.384-.368v-5.984h-3.424v1.056h2.352v4.864c-.656.256-1.424 1.072-2.304 2.448l.864.768c.912-1.472 1.552-2.192 1.936-2.192.192 0 .4.128.624.4.48.576 1.04.976 1.68 1.168.64.176 1.472.272 2.496.288 1.024.016 1.968.032 2.832.032z" fill="#00BF8B"/><path d="M83 484a2 2 0 0 1 2-2h14a2 2 0 0 1 2 2v22H83v-22z" fill="#00BF8B"/><path d="M101 490h6a2 2 0 0 1 2 2v14h-8v-16z" fill="#1F2D3D"/><path d="M87 487a1 1 0 0 1 1-1h8a1 1 0 0 1 0 2h-8a1 1 0 0 1-1-1z" fill="#CDEFE6"/><path d="M87 491a1 1 0 0 1 1-1h8a1 1 0 0 1 0 2h-8a1 1 0 0 1-1-1z" fill="#CDEFE6"/><path d="M88 499a1 1 0 0 1 1-1h6a1 1 0 0 1 1 1v7h-8v-7z" fill="#CDEFE6"/><path d="M0 184h192v1H0v-1z" fill="#00BF8B"/><path d="M0 277h192v1H0v-1z" fill="#00BF8B"/><path d="M0 370h192v1H0v-1z" fill="#00BF8B"/><path d="M0 463h192v1H0v-1z" fill="#00BF8B"/><path d="M8 100h4v4H8v-4z" fill="#00BF8B"/><path d="M180 544h4v4h-4v-4z" fill="#00BF8B"/><path d="M0 8a8 8 0 0 1 8-8h570a8 8 0 0 1 8 8v48a8 8 0 0 1-8 8H8a8 8 0 0 1-8-8V8z" fill="#00BF8B"/><path opacity=".8" fill-rule="evenodd" clip-rule="evenodd" d="M16 8H8v8h2v-6h6V8z" fill="#fff"/><path opacity=".2" fill-rule="evenodd" clip-rule="evenodd" d="M40 8H16v1h24V8zM9 16H8v24h1V16z" fill="#fff"/><path opacity=".8" fill-rule="evenodd" clip-rule="evenodd" d="M578 48h-2v6h-6v2h8v-8z" fill="#fff"/><path opacity=".2" fill-rule="evenodd" clip-rule="evenodd" d="M578 24h-1v24h1V24zm-8 31h-24v1h24v-1z" fill="#fff"/><path d="M253.4 21.776c-.984 1.8-2.016 3.336-3.12 4.608-1.344 1.512-2.784 2.688-4.32 3.552l1.248 1.992c2.064-1.44 3.648-2.808 4.8-4.104 1.128-1.248 2.256-2.88 3.36-4.848l-1.968-1.2zm.696 11.088c-.504 2.016-1.2 3.648-2.088 4.92-1.104 1.416-2.76 2.712-4.92 3.864l1.464 1.896c2.448-1.392 4.296-2.976 5.544-4.704.96-1.488 1.728-3.48 2.304-5.976h5.424c-.12 3.432-.384 5.688-.768 6.744-.384 1.008-1.2 1.512-2.4 1.512-1.248 0-2.592-.048-4.008-.096l.624 2.256h4.536c1.224-.072 2.112-.48 2.664-1.2.552-.744.936-2.064 1.176-3.936.24-1.92.384-4.392.48-7.464h-14.52v2.184h4.488zm6.6-11.4l-1.992 1.128c1.464 3.768 4.056 6.84 7.752 9.24l1.536-1.8c-3.552-2.112-5.976-4.968-7.296-8.568z" fill="#fff"/><path d="M275.888 31.52a78.671 78.671 0 0 1 2.088 3.072l1.224-1.824a63.38 63.38 0 0 0-3.312-3.672v-1.08h3.048v-2.184h-3.048V21.32h-2.232v4.512h-3.312v2.184h3.168c-.768 2.784-2.016 5.256-3.72 7.416l.984 2.496a28.886 28.886 0 0 0 2.88-5.928v11.4h2.232V31.52zm14.232-10.176c-2.952 1.056-6.312 1.632-10.056 1.728v7.896c-.144 4.536-1.2 8.088-3.144 10.632l1.632 1.704c2.28-3.048 3.504-7.152 3.696-12.312h3.888v12.432h2.304V30.992h3.36v-2.184h-9.552v-3.792c3.312-.168 6.312-.72 9-1.632l-1.128-2.04z" fill="#fff"/><path d="M295.928 21.584l-1.56 1.488c1.752 1.224 3.12 2.376 4.104 3.432l1.56-1.56c-1.104-1.128-2.472-2.256-4.104-3.36zm-.36 5.64l-1.56 1.512c1.704 1.248 3.024 2.424 3.96 3.504l1.56-1.56c-1.08-1.152-2.4-2.304-3.96-3.456zm2.352 6.672a67.76 67.76 0 0 1-3.864 8.376l2.16.936a74.685 74.685 0 0 0 3.72-8.52l-2.016-.792zm6.672-3.552v8.52h6.672v-8.52h-6.672zm4.656 6.552h-2.64v-4.584h2.64v4.584zm3.24 6.432c1.8 0 2.712-.84 2.712-2.52V22.136h-14.592V43.4h2.232V24.272h10.128v16.056c0 .552-.432.84-1.248.84l-2.736-.072.6 2.232h2.904zm-8.424-16.992V28.4h7.824v-2.064h-7.824z" fill="#fff"/><path d="M320.48 35.6v1.896h7.32v3.216c0 .504-.24.768-.672.768-.672 0-1.392-.072-2.112-.168l.48 2.16h2.4c1.44 0 2.16-.744 2.16-2.232v-3.744h7.152v-1.968h-16.56c1.56-.672 2.976-1.584 4.272-2.688v1.032h8.64v-.864c1.392 1.224 3.144 2.208 5.256 2.976l1.032-1.848c-2.112-.72-3.84-1.704-5.232-2.952.912-.936 1.752-2.064 2.568-3.384v-.264h1.752v-4.704h-8.664a16.308 16.308 0 0 0-.672-1.68l-2.448.384c.24.384.504.816.744 1.296h-8.688v4.632h2.136v-2.592H336.8v1.392h-5.304a6.528 6.528 0 0 1-.312-1.176l-1.776.624c.48 2.448 1.536 4.56 3.12 6.288h-6.72c1.152-1.176 2.16-2.592 3.024-4.248V26.36h-3.48c.24-.288.456-.576.696-.888l-2.04-.456c-1.632 2.064-3.624 3.672-5.928 4.872l1.248 1.464c.264-.144.552-.312.84-.48a24.024 24.024 0 0 1 1.464 1.92 17.671 17.671 0 0 1-3.552 1.56l1.008 1.776c.456-.168.912-.336 1.392-.528zm2.04-6.408c.6.576 1.128 1.128 1.608 1.704-.384.336-.768.672-1.176 1.008a20.077 20.077 0 0 0-1.512-1.896c.36-.264.72-.528 1.08-.816zm2.736.48a23.546 23.546 0 0 0-1.56-1.512l.168-.168h2.64a21.753 21.753 0 0 1-1.248 1.68zm7.872 8.28l-1.176 1.728c2.016.864 3.984 2.088 5.904 3.624l1.224-1.896c-1.776-1.344-3.768-2.496-5.952-3.456zm-9.408-.048a14.17 14.17 0 0 1-2.16 2.016 11.894 11.894 0 0 1-3.024 1.512l1.152 1.896c1.464-.72 2.616-1.392 3.432-1.968.792-.624 1.584-1.416 2.352-2.376l-1.752-1.08zm8.496-9.84h2.496c-.432.624-.912 1.176-1.392 1.704a9.851 9.851 0 0 1-1.104-1.704z" fill="#fff"/><path d="M614 8a8 8 0 0 1 8-8h570c4.42 0 8 3.582 8 8v48c0 4.418-3.58 8-8 8H622a8 8 0 0 1-8-8V8z" fill="#1F2D3D"/><path opacity=".7" fill-rule="evenodd" clip-rule="evenodd" d="M630 8h-8v8h2v-6h6V8z" fill="#fff"/><path opacity=".1" fill-rule="evenodd" clip-rule="evenodd" d="M654 8h-24v1h24V8zm-31 8h-1v24h1V16z" fill="#fff"/><path opacity=".7" fill-rule="evenodd" clip-rule="evenodd" d="M1192 48h-2v6h-6v2h8v-8z" fill="#fff"/><path opacity=".1" fill-rule="evenodd" clip-rule="evenodd" d="M1192 24h-1v24h1V24zm-8 31h-24v1h24v-1z" fill="#fff"/><path d="M868.336 22.136h-7.8v15.288h1.992V24.248h3.792V37.4h2.016V22.136zm-4.824 3.624v7.848c-.048 2.064-.312 3.768-.792 5.064-.504 1.2-1.416 2.208-2.76 3l1.152 1.824c1.464-.816 2.52-1.968 3.168-3.456.648-1.584 1.008-3.744 1.08-6.432V25.76h-1.848zm2.736 12.504l-1.392 1.344c1.128 1.344 2.016 2.616 2.664 3.792l.768-.744.024.168c3.024-.528 5.712-1.2 8.088-2.064v-1.992c-.696.24-1.44.456-2.208.672v-4.32h1.56v-1.872h-1.56v-3.6h-1.92v10.248c-.36.072-.744.144-1.128.24v-8.352h-1.824v8.688c-.384.048-.768.12-1.176.192a39.325 39.325 0 0 0-1.896-2.4zm3.456-15.504v2.04h5.064v-2.04h-5.064zm-.696 3.96v2.136h7.296c.072 4.272.24 7.224.528 8.856.312 1.824.792 3.288 1.44 4.392.504.816 1.056 1.224 1.656 1.224 1.008 0 1.704-1.44 2.04-4.296l-1.728-1.2c-.12 1.848-.264 2.808-.432 2.856-.384-.168-.72-1.176-1.008-3-.24-1.488-.408-4.44-.504-8.832h3.456V26.72h-3.48c-.024-1.272-.024-2.64-.024-4.104.576 1.008 1.128 2.208 1.656 3.552l1.632-.72a22.768 22.768 0 0 0-1.608-3.456l-1.68.576v-1.08h-2.016c0 1.872 0 3.624.024 5.232h-7.248z" fill="#fff"/><path d="M887.608 35.384h4.944v1.752h-4.944v-1.752zm4.944-1.872h-4.944v-1.848h4.944v1.848zm-4.944 5.52h4.944v1.344c0 .624-.288.936-.84.936l-1.704-.096.552 2.136h1.872c1.536 0 2.328-.84 2.328-2.496V29.672h-9.36V43.52h2.208v-4.488zm15.336-7.08c.864 0 1.512-.192 1.944-.552.432-.408.768-1.608.96-3.6l-2.136-.696c-.048 1.344-.192 2.16-.384 2.448-.168.24-.432.36-.816.36h-2.856c-.576 0-.864-.408-.864-1.176v-2.4a87.521 87.521 0 0 0 6.792-1.272l-.744-2.016c-1.56.432-3.576.816-6.048 1.2v-2.832h-2.256v7.8c0 1.824.816 2.736 2.496 2.736h3.912zm-4.152 5.544c2.4-.24 4.68-.624 6.792-1.2l-.744-2.04c-1.776.528-3.792.936-6.048 1.176v-2.64h-2.256v8.136c0 1.44.816 2.184 2.448 2.184h3.984c.888 0 1.536-.192 1.944-.552.432-.384.744-1.584.936-3.6l-2.064-.672c-.072 1.344-.216 2.16-.408 2.448-.168.216-.456.336-.84.336h-2.904c-.576 0-.84-.216-.84-.648v-2.928zM893.032 23l-1.752 1.104c.48.696.936 1.368 1.368 2.04-1.944.24-3.768.432-5.448.528 1.248-1.2 2.376-2.76 3.384-4.728l-2.184-.648c-.768 1.632-1.896 3.264-3.36 4.896-.288.24-.624.432-1.032.576l.624 1.896c3.504-.192 6.504-.48 9-.864.288.504.552 1.008.792 1.488l1.872-1.344c-.768-1.392-1.848-3.048-3.264-4.944z" fill="#fff"/><path d="M915.256 21.512v18.864h-6.96v2.232h21.408v-2.232h-7.008V21.512h-2.28v18.864h-2.88V21.512h-2.28zm11.928 4.464c-1.008 4.32-2.208 7.896-3.552 10.68l2.04.72c1.44-3.096 2.616-6.696 3.528-10.824l-2.016-.576zm-16.464-.048l-1.944.624a88.203 88.203 0 0 1 3.12 10.92l2.088-.528c-.96-4.128-2.04-7.8-3.264-11.016z" fill="#fff"/><path d="M938.944 21.224c-.984 2.328-2.88 4.296-5.688 5.904l1.392 1.824a20.84 20.84 0 0 0 2.688-1.944c.984.816 2.04 1.584 3.192 2.256-2.496.936-5.376 1.608-8.592 2.016l1.056 2.136c3.792-.576 7.152-1.512 10.032-2.808 2.976 1.416 6.336 2.328 10.056 2.76l1.032-2.136c-3.168-.288-6.024-.936-8.592-1.896 2.04-1.2 3.792-2.64 5.232-4.296v-1.848H940.48a14.71 14.71 0 0 0 .792-1.632l-2.328-.336zM943 28.208a22.501 22.501 0 0 1-4.152-2.712.766.766 0 0 1 .144-.168h8.424a21.232 21.232 0 0 1-4.416 2.88zm-1.728 3.864c0 .864-.096 1.68-.24 2.448h-7.44v2.04h6.744c-.144.312-.336.624-.528.936-1.2 1.656-3.768 3.048-7.68 4.2l1.512 1.848c4.44-1.416 7.248-3.192 8.448-5.352.288-.504.528-1.056.744-1.632h6.504c-.072 2.112-.264 3.432-.576 3.936-.312.48-1.08.744-2.304.768-.768-.048-1.776-.096-3.024-.144l.576 2.064c1.152.072 2.16.12 2.976.12 1.68 0 2.88-.432 3.552-1.248.672-.816 1.032-3.336 1.08-7.536h-8.28c.12-.768.192-1.584.192-2.448h-2.256z" fill="#fff"/><path d="M324 100a8 8 0 0 1 8-8h536a8 8 0 0 1 8 8v448a8 8 0 0 1-8 8H332a8 8 0 0 1-8-8V100z" fill="#fff"/><path fill-rule="evenodd" clip-rule="evenodd" d="M868 94H332a6 6 0 0 0-6 6v448a6 6 0 0 0 6 6h536a6 6 0 0 0 6-6V100a6 6 0 0 0-6-6zm-536-2a8 8 0 0 0-8 8v448a8 8 0 0 0 8 8h536a8 8 0 0 0 8-8V100a8 8 0 0 0-8-8H332z" fill="url(#a)"/><path d="M332 100h4v4h-4v-4z" fill="#00BF8B"/><path d="M864 544h4v4h-4v-4z" fill="#1F2D3D"/><path fill-rule="evenodd" clip-rule="evenodd" d="M524.395 164.996a4.95 4.95 0 0 1 4.95 4.95v22.507a.415.415 0 0 1-.682.316l-2.931-2.476a2.072 2.072 0 0 0-2.674 0l-2.931 2.476a.414.414 0 0 1-.682-.316v-22.507a4.95 4.95 0 0 1 4.95-4.95z" fill="url(#b)"/><path fill-rule="evenodd" clip-rule="evenodd" d="M517.643 153.076c0 4.829 4.206 8.743 9.394 8.743h7.737c2.838 0 5.378 1.855 5.824 4.465.57 3.337-2.186 6.217-5.663 6.217h-11.458c-5.188 0-9.394 3.914-9.394 8.742h21.992c8.356 0 15.131-6.305 15.131-14.083 0-7.778-6.775-14.084-15.131-14.084h-18.432z" fill="url(#c)"/><path d="M577.38 172.6h2.28v2.28h-2.28v-2.28zm4.14 0h2.38v2.28h-2.38v-2.28zm2.38 4.08v.98h1.88v-10.9h-4.26v-2.98h-1.86v2.98h-4.18v10.92h1.9v-1h2.28v5.56h1.86v-5.56h2.38zm0-5.82h-2.38v-2.3h2.38v2.3zm-4.24 0h-2.28v-2.3h2.28v2.3zm-8.9 3.6v7.82h1.86v-7.94c.52.44 1.06.94 1.6 1.54l1.02-1.56c-.8-.76-1.68-1.42-2.62-1.98v-.12c1-1.4 1.72-2.78 2.2-4.18v-1.6h-1.9c-.24-.84-.56-1.78-.96-2.78l-1.8.5c.36.74.66 1.5.94 2.28h-2.66v1.82h4.46c-.84 2.04-2.48 4.12-4.9 6.26l.6 2c.78-.68 1.5-1.38 2.16-2.06z" fill="#00BF8B"/><path d="M577.38 172.6h2.28v2.28h-2.28v-2.28zm4.14 0h2.38v2.28h-2.38v-2.28zm2.38 4.08v.98h1.88v-10.9h-4.26v-2.98h-1.86v2.98h-4.18v10.92h1.9v-1h2.28v5.56h1.86v-5.56h2.38zm0-5.82h-2.38v-2.3h2.38v2.3zm-4.24 0h-2.28v-2.3h2.28v2.3zm-8.9 3.6v7.82h1.86v-7.94c.52.44 1.06.94 1.6 1.54l1.02-1.56c-.8-.76-1.68-1.42-2.62-1.98v-.12c1-1.4 1.72-2.78 2.2-4.18v-1.6h-1.9c-.24-.84-.56-1.78-.96-2.78l-1.8.5c.36.74.66 1.5.94 2.28h-2.66v1.82h4.46c-.84 2.04-2.48 4.12-4.9 6.26l.6 2c.78-.68 1.5-1.38 2.16-2.06z" fill="url(#d)" fill-opacity=".4"/><path d="M588.36 169.64v1.72h7.92v1.16h-6.22V178h1.86v-3.82h4.36v1.58c-2.2 1.98-4.86 3.52-7.94 4.6l1.14 1.7c2.52-1.06 4.8-2.52 6.8-4.4v4.68h1.92v-4.74c2.08 1.84 4.54 3.28 7.38 4.36l1-1.74c-3.48-1.08-6.26-2.54-8.38-4.42v-1.62h4.68V176c0 .32-.16.5-.46.5l-1.3-.1.48 1.68h1.36c1.2 0 1.8-.56 1.8-1.68v-3.88h-6.56v-1.16h7.92v-1.72h-7.92v-1.1l.38.24c.36-.56.7-1.14 1.02-1.78h1.08c.48.76.9 1.56 1.26 2.36l1.66-.64c-.26-.52-.58-1.1-.98-1.72h3.4v-1.68h-5.74c.14-.4.28-.84.4-1.28l-1.84-.4c-.36 1.46-.98 2.82-1.86 4.1l1.06.7h-1.76v1.2h-7.92zm2.82-2.64h.76c.48.76.92 1.56 1.28 2.36l1.72-.62c-.28-.54-.64-1.12-1.04-1.74h2.94v-1.68h-4.78c.18-.4.36-.84.52-1.3l-1.82-.4c-.52 1.54-1.4 2.98-2.64 4.32l1.64 1.02c.52-.6.98-1.26 1.42-1.96z" fill="#00BF8B"/><path d="M588.36 169.64v1.72h7.92v1.16h-6.22V178h1.86v-3.82h4.36v1.58c-2.2 1.98-4.86 3.52-7.94 4.6l1.14 1.7c2.52-1.06 4.8-2.52 6.8-4.4v4.68h1.92v-4.74c2.08 1.84 4.54 3.28 7.38 4.36l1-1.74c-3.48-1.08-6.26-2.54-8.38-4.42v-1.62h4.68V176c0 .32-.16.5-.46.5l-1.3-.1.48 1.68h1.36c1.2 0 1.8-.56 1.8-1.68v-3.88h-6.56v-1.16h7.92v-1.72h-7.92v-1.1l.38.24c.36-.56.7-1.14 1.02-1.78h1.08c.48.76.9 1.56 1.26 2.36l1.66-.64c-.26-.52-.58-1.1-.98-1.72h3.4v-1.68h-5.74c.14-.4.28-.84.4-1.28l-1.84-.4c-.36 1.46-.98 2.82-1.86 4.1l1.06.7h-1.76v1.2h-7.92zm2.82-2.64h.76c.48.76.92 1.56 1.28 2.36l1.72-.62c-.28-.54-.64-1.12-1.04-1.74h2.94v-1.68h-4.78c.18-.4.36-.84.52-1.3l-1.82-.4c-.52 1.54-1.4 2.98-2.64 4.32l1.64 1.02c.52-.6.98-1.26 1.42-1.96z" fill="url(#e)" fill-opacity=".4"/><path d="M611.76 171.08h4.6v3.06h-4.6v-3.06zm-.1 4.82h4.7v5.7h1.92v-5.7h4.96v2.98c0 .78-.34 1.18-.98 1.18-.68 0-1.4-.04-2.18-.1l.5 1.86h2.3c1.52 0 2.3-.76 2.3-2.26V164.5h-15.34v9.8c-.04 2.64-.66 4.82-1.86 6.54l1.46 1.3c1.24-1.64 1.98-3.72 2.22-6.24zm11.58-1.76h-4.96v-3.06h4.96v3.06zm0-4.8h-4.96v-3h4.96v3zm-6.88-3v3h-4.6v-3h4.6z" fill="#00BF8B"/><path d="M611.76 171.08h4.6v3.06h-4.6v-3.06zm-.1 4.82h4.7v5.7h1.92v-5.7h4.96v2.98c0 .78-.34 1.18-.98 1.18-.68 0-1.4-.04-2.18-.1l.5 1.86h2.3c1.52 0 2.3-.76 2.3-2.26V164.5h-15.34v9.8c-.04 2.64-.66 4.82-1.86 6.54l1.46 1.3c1.24-1.64 1.98-3.72 2.22-6.24zm11.58-1.76h-4.96v-3.06h4.96v3.06zm0-4.8h-4.96v-3h4.96v3zm-6.88-3v3h-4.6v-3h4.6z" fill="url(#f)" fill-opacity=".4"/><path d="M642.92 167.98v3.4h-10.9v-3.4h10.9zM632 173.24h12.84v-7.12h-6.34c-.32-.9-.64-1.72-.98-2.46l-2.04.32c.4.66.76 1.38 1.08 2.14h-6.42v6.54c-.02 3.44-.8 6.26-2.32 8.44l1.4 1.28c1.74-2.56 2.66-5.62 2.78-9.14z" fill="#00BF8B"/><path d="M642.92 167.98v3.4h-10.9v-3.4h10.9zM632 173.24h12.84v-7.12h-6.34c-.32-.9-.64-1.72-.98-2.46l-2.04.32c.4.66.76 1.38 1.08 2.14h-6.42v6.54c-.02 3.44-.8 6.26-2.32 8.44l1.4 1.28c1.74-2.56 2.66-5.62 2.78-9.14z" fill="url(#g)" fill-opacity=".4"/><path d="M654.14 173.8h2.3v2.3h-2.3v-2.3zm3.94 2.3v-2.3h2.3v2.3h-2.3zm2.3-3.86h-2.3v-2.26h2.3v2.26zm-3.94-2.26v2.26h-2.3v-2.26h2.3zm-8.14-5.2v1.84h17.88v-1.84H648.3zm15.42 5.06v9.68H650.8v-9.62h-1.84v12.34h1.84v-.92h12.92v.92h1.84v-12.4h-1.84zm-11.4-1.58v9.56h9.88v-9.56h-9.88z" fill="#00BF8B"/><path d="M654.14 173.8h2.3v2.3h-2.3v-2.3zm3.94 2.3v-2.3h2.3v2.3h-2.3zm2.3-3.86h-2.3v-2.26h2.3v2.26zm-3.94-2.26v2.26h-2.3v-2.26h2.3zm-8.14-5.2v1.84h17.88v-1.84H648.3zm15.42 5.06v9.68H650.8v-9.62h-1.84v12.34h1.84v-.92h12.92v.92h1.84v-12.4h-1.84zm-11.4-1.58v9.56h9.88v-9.56h-9.88z" fill="url(#h)" fill-opacity=".4"/><path d="M674.04 168.98v3.44h3c-.98.8-2.3 1.38-3.98 1.72l.7 1.56c1.92-.42 3.46-1.14 4.66-2.18.2.22.38.48.58.76-1.42 1.16-3.4 2.1-5.96 2.84l.92 1.56c2.38-.82 4.3-1.86 5.74-3.12.12.28.24.58.32.9-1.68 1.5-4.04 2.74-7.06 3.7l.96 1.62c2.6-.96 4.72-2.16 6.36-3.6 0 .08.02.18.02.28 0 .84-.12 1.4-.34 1.7-.24.28-.56.42-.94.46-.4.02-.92.04-1.52.04l.58 1.7c.42 0 .8-.02 1.16-.06 1.08-.12 1.84-.42 2.24-.88.48-.56.72-1.54.72-2.96-.04-.72-.14-1.42-.3-2.06l.56-.24c.6 1.92 1.58 3.68 2.9 5.28l1.26-1.56c-1.3-1.3-2.22-2.78-2.74-4.44.64-.36 1.26-.78 1.84-1.24l-1.24-1.42c-.86.8-1.92 1.48-3.16 2.04-.4-.86-.96-1.66-1.64-2.4h5.74v-4.7h-3.44c.4-.44.82-.92 1.24-1.48v-1.2h-4.8l.72-.96-1.92-.44c-1.32 1.78-2.9 3.18-4.74 4.18l1.16 1.4c.12-.08.24-.16.4-.24zm5.58-1.26h-3.82c.44-.38.9-.8 1.36-1.24h3.82c-.44.44-.9.86-1.36 1.24zm3.96 3.16h-3.26c.2-.5.36-1.04.5-1.62h2.76v1.62zm-5.22 0h-2.48v-1.62H679c-.14.58-.36 1.12-.64 1.62zm-8.24.78v10.6h1.9V168.4c.6-1.24 1.1-2.54 1.5-3.9l-1.76-.84c-.84 3.08-2.12 5.76-3.88 8.06l.62 2.04c.58-.68 1.12-1.38 1.62-2.1z" fill="#00BF8B"/><path d="M674.04 168.98v3.44h3c-.98.8-2.3 1.38-3.98 1.72l.7 1.56c1.92-.42 3.46-1.14 4.66-2.18.2.22.38.48.58.76-1.42 1.16-3.4 2.1-5.96 2.84l.92 1.56c2.38-.82 4.3-1.86 5.74-3.12.12.28.24.58.32.9-1.68 1.5-4.04 2.74-7.06 3.7l.96 1.62c2.6-.96 4.72-2.16 6.36-3.6 0 .08.02.18.02.28 0 .84-.12 1.4-.34 1.7-.24.28-.56.42-.94.46-.4.02-.92.04-1.52.04l.58 1.7c.42 0 .8-.02 1.16-.06 1.08-.12 1.84-.42 2.24-.88.48-.56.72-1.54.72-2.96-.04-.72-.14-1.42-.3-2.06l.56-.24c.6 1.92 1.58 3.68 2.9 5.28l1.26-1.56c-1.3-1.3-2.22-2.78-2.74-4.44.64-.36 1.26-.78 1.84-1.24l-1.24-1.42c-.86.8-1.92 1.48-3.16 2.04-.4-.86-.96-1.66-1.64-2.4h5.74v-4.7h-3.44c.4-.44.82-.92 1.24-1.48v-1.2h-4.8l.72-.96-1.92-.44c-1.32 1.78-2.9 3.18-4.74 4.18l1.16 1.4c.12-.08.24-.16.4-.24zm5.58-1.26h-3.82c.44-.38.9-.8 1.36-1.24h3.82c-.44.44-.9.86-1.36 1.24zm3.96 3.16h-3.26c.2-.5.36-1.04.5-1.62h2.76v1.62zm-5.22 0h-2.48v-1.62H679c-.14.58-.36 1.12-.64 1.62zm-8.24.78v10.6h1.9V168.4c.6-1.24 1.1-2.54 1.5-3.9l-1.76-.84c-.84 3.08-2.12 5.76-3.88 8.06l.62 2.04c.58-.68 1.12-1.38 1.62-2.1z" fill="url(#i)" fill-opacity=".4"/><path d="M472 223a8 8 0 0 1 8-8h240a8 8 0 0 1 8 8v36a8 8 0 0 1-8 8H480a8 8 0 0 1-8-8v-36z" fill="#00BF8B"/><path d="M472 223a8 8 0 0 1 8-8h240a8 8 0 0 1 8 8v36a8 8 0 0 1-8 8H480a8 8 0 0 1-8-8v-36z" fill="url(#j)" fill-opacity=".4"/><path d="M558.984 232.03a2.001 2.001 0 0 1 1.595-.577l6.016.547a.999.999 0 0 1 .905.905l.547 6.015a2 2 0 0 1-.578 1.596l-9.944 9.944a1 1 0 0 1-1.414 0l-7.071-7.071a.999.999 0 0 1 0-1.414l9.944-9.945z" fill="#fff"/><path d="M564.596 237.732a2 2 0 1 1-2.828-2.828 2 2 0 0 1 2.828 2.828z" fill="#69CDB1"/><path d="M552.575 241.268l5.657 5.656-1.414 1.415-5.657-5.657 1.414-1.414z" fill="#CDEFE6"/><path d="M585.24 232.294v3.258h-2.052v1.638h2.034c-.54 2.106-1.422 3.978-2.628 5.634l.738 1.872c.756-1.224 1.386-2.574 1.908-4.032v8.172h1.674v-8.622c.45.648.99 1.458 1.602 2.43l.972-1.458a40.564 40.564 0 0 0-2.574-2.826v-1.17h1.944v-1.638h-1.944v-3.258h-1.674zm5.31 8.172a19.325 19.325 0 0 1-2.358 5.904l1.494.954c1.044-1.836 1.854-3.996 2.43-6.516l-1.566-.342zm6.93-.144l-1.53.504c.648 1.944 1.26 4.158 1.818 6.678l1.566-.702c-.522-2.304-1.134-4.464-1.854-6.48zm-4.266 8.334c1.188 0 1.8-.612 1.8-1.818v-7.686h4.266v-1.638h-10.206v1.638h4.23v7.272c0 .486-.234.738-.666.738-.504 0-1.044-.036-1.584-.108l.342 1.602h1.818zm-3.204-15.48v1.62h8.334v-1.62h-8.334z" fill="#fff"/><path d="M612.978 242.59c-.504 1.602-1.062 2.988-1.71 4.158h-9.9v1.584h15.3v-1.584h-3.564c.612-1.098 1.134-2.34 1.566-3.708l-1.692-.45zm-8.172.162l-1.566.504a16.731 16.731 0 0 1 1.386 3.186l1.548-.396c-.414-1.242-.864-2.34-1.368-3.294zm4.158-.36l-1.584.504c.468 1.08.846 2.196 1.152 3.366l1.53-.378c-.324-1.314-.684-2.484-1.098-3.492zm-4.68-1.584v1.278h9.45v-1.26c.828.378 1.728.738 2.682 1.062l.828-1.476c-2.916-.918-5.472-2.178-7.704-3.762h-1.08c-2.052 1.476-4.608 2.718-7.704 3.726l.828 1.494a65.087 65.087 0 0 0 2.7-1.062zm8.946-.216h-8.478c1.638-.774 3.06-1.62 4.248-2.556 1.224.954 2.646 1.8 4.23 2.556zm-9.414-5.418h1.188c.288.666.54 1.35.756 2.07l1.548-.558c-.162-.468-.36-.972-.612-1.512h2.25v-1.512h-4.482c.126-.36.252-.72.378-1.116l-1.656-.36c-.468 1.584-1.242 3.06-2.358 4.446l1.476.936c.558-.72 1.062-1.53 1.512-2.394zm7.542 0h1.422c.378.72.72 1.458 1.008 2.25l1.566-.594a15.737 15.737 0 0 0-.828-1.656h2.538v-1.512h-5.058c.126-.36.252-.72.36-1.116l-1.62-.36c-.36 1.332-.972 2.556-1.8 3.708l1.44.918c.36-.504.684-1.062.972-1.638z" fill="#fff"/><path d="M620.7 239.71v9.162h1.674v-11.826a22.863 22.863 0 0 0 1.71-4.176l-1.53-.72c-.828 2.952-2.142 5.544-3.906 7.758l.504 1.71c.54-.612 1.062-1.26 1.548-1.908zm2.934-4.572v1.638h3.186c-.846 3.096-2.196 5.652-4.05 7.668l.882 1.458c2.124-2.376 3.636-5.418 4.536-9.126v6.876h-2.52v1.638h2.52v3.564h1.674v-3.564h2.574v-1.638h-2.574v-6.876a23.448 23.448 0 0 0 4.374 8.91l1.098-1.386a19.054 19.054 0 0 1-4.122-7.524h3.42v-1.638h-4.77v-2.916h-1.674v2.916h-4.554z" fill="#fff"/><path d="M644.37 248.8c1.116 0 1.692-.594 1.692-1.746v-4.518a87.781 87.781 0 0 0 3.906-.378c.414.612.792 1.206 1.116 1.782l1.368-.954c-.792-1.296-1.944-2.826-3.438-4.554l-1.26.792c.432.522.828 1.044 1.224 1.566-1.854.216-4.032.414-6.534.576 2.106-1.188 4.59-3.006 7.452-5.49l-1.584-.774a70.728 70.728 0 0 1-2.358 2.052c-1.26.09-2.52.162-3.78.234 1.008-.72 1.98-1.62 2.916-2.7 2.592-.18 4.86-.468 6.768-.882l-.846-1.422c-3.546.684-7.902 1.044-13.05 1.044l.504 1.476c1.584 0 3.078-.036 4.5-.09-1.008 1.116-1.872 1.854-2.592 2.214-.36.162-.738.27-1.152.306l.36 1.512c1.62-.09 3.168-.198 4.608-.306-1.584 1.17-3.042 2.034-4.374 2.61a6.89 6.89 0 0 1-1.476.306l.468 1.494c1.98-.09 3.816-.18 5.544-.288v3.978c0 .396-.198.594-.576.594-.576 0-1.188-.036-1.836-.108l.396 1.674h2.034zm4.122-5.436l-1.134 1.116c1.89 1.422 3.366 2.754 4.41 3.996l1.224-1.224c-1.206-1.296-2.7-2.592-4.5-3.888zm-7.182.126c-1.188 1.332-2.664 2.502-4.392 3.51l1.08 1.404c1.8-1.098 3.294-2.376 4.518-3.834l-1.206-1.08z" fill="#fff"/><path d="M472 389a8 8 0 0 1 8-8h240a8 8 0 0 1 8 8v36a8 8 0 0 1-8 8H480a8 8 0 0 1-8-8v-36z" fill="#00BF8B"/><path d="M472 389a8 8 0 0 1 8-8h240a8 8 0 0 1 8 8v36a8 8 0 0 1-8 8H480a8 8 0 0 1-8-8v-36z" fill="url(#k)" fill-opacity=".4"/><path d="M557.169 404.22a1.681 1.681 0 0 1 1.662 0l8.655 4.849c.685.384.685 1.478 0 1.862l-8.655 4.849a1.681 1.681 0 0 1-1.662 0l-8.655-4.849c-.685-.384-.685-1.478 0-1.862l8.655-4.849z" fill="#CDEFE6"/><path d="M557.169 398.22a1.681 1.681 0 0 1 1.662 0l8.655 4.849c.685.384.685 1.478 0 1.862l-8.655 4.849a1.681 1.681 0 0 1-1.662 0l-8.655-4.849c-.685-.384-.685-1.478 0-1.862l8.655-4.849z" fill="#fff"/><path d="M565 404a1 1 0 1 1-2 0 1 1 0 0 1 2 0z" fill="#69CDB1"/><path d="M586.068 404.774h4.14v2.754h-4.14v-2.754zm-.09 4.338h4.23v5.13h1.728v-5.13h4.464v2.682c0 .702-.306 1.062-.882 1.062-.612 0-1.26-.036-1.962-.09l.45 1.674h2.07c1.368 0 2.07-.684 2.07-2.034v-13.554H584.34v8.82c-.036 2.376-.594 4.338-1.674 5.886l1.314 1.17c1.116-1.476 1.782-3.348 1.998-5.616zm10.422-1.584h-4.464v-2.754h4.464v2.754zm0-4.32h-4.464v-2.7h4.464v2.7zm-6.192-2.7v2.7h-4.14v-2.7h4.14z" fill="#fff"/><path d="M614.112 401.984v3.06h-9.81v-3.06h9.81zm-9.828 4.734h11.556v-6.408h-5.706a27.01 27.01 0 0 0-.882-2.214l-1.836.288c.36.594.684 1.242.972 1.926h-5.778v5.886c-.018 3.096-.72 5.634-2.088 7.596l1.26 1.152c1.566-2.304 2.394-5.058 2.502-8.226z" fill="#fff"/><path d="M624.3 398.582c-.738 1.35-1.512 2.502-2.34 3.456-1.008 1.134-2.088 2.016-3.24 2.664l.936 1.494c1.548-1.08 2.736-2.106 3.6-3.078.846-.936 1.692-2.16 2.52-3.636l-1.476-.9zm.522 8.316c-.378 1.512-.9 2.736-1.566 3.69-.828 1.062-2.07 2.034-3.69 2.898l1.098 1.422c1.836-1.044 3.222-2.232 4.158-3.528.72-1.116 1.296-2.61 1.728-4.482h4.068c-.09 2.574-.288 4.266-.576 5.058-.288.756-.9 1.134-1.8 1.134-.936 0-1.944-.036-3.006-.072l.468 1.692h3.402c.918-.054 1.584-.36 1.998-.9.414-.558.702-1.548.882-2.952.18-1.44.288-3.294.36-5.598h-10.89v1.638h3.366zm4.95-8.55l-1.494.846c1.098 2.826 3.042 5.13 5.814 6.93l1.152-1.35c-2.664-1.584-4.482-3.726-5.472-6.426z" fill="#fff"/><path d="M641.778 405.026v1.476h9.882v-1.476h-9.882zm-1.26 2.916v1.548h3.672c-1.152 1.8-2.088 2.898-2.808 3.33a2.05 2.05 0 0 1-.342.162l.36 1.422c3.33-.216 6.408-.522 9.234-.9.324.432.63.882.9 1.314l1.368-.954c-.774-1.134-1.872-2.466-3.312-3.978l-1.26.774c.45.504.882 1.008 1.278 1.512a79.045 79.045 0 0 1-6.174.72c.756-.756 1.62-1.89 2.592-3.402h6.804v-1.548h-12.312zm9.828-7.524v1.692H640.23v-1.692h10.116zm-10.116 3.24h11.808v-4.806h-13.5v6.12c-.018 3.528-.612 6.426-1.764 8.658l1.242 1.116c1.458-2.736 2.196-5.994 2.214-9.774v-1.314z" fill="#fff"/><path d="M472 306a8 8 0 0 1 8-8h240a8 8 0 0 1 8 8v36a8 8 0 0 1-8 8H480a8 8 0 0 1-8-8v-36z" fill="#00BF8B"/><path d="M472 306a8 8 0 0 1 8-8h240a8 8 0 0 1 8 8v36a8 8 0 0 1-8 8H480a8 8 0 0 1-8-8v-36z" fill="url(#l)" fill-opacity=".4"/><path d="M562 318a4 4 0 1 1-8 0 4 4 0 0 1 8 0z" fill="#fff"/><path d="M549 328a4 4 0 0 1 4-4h10a4 4 0 0 1 4 4v6h-18v-6z" fill="#CDEFE6"/><path d="M565 328.5a1.5 1.5 0 1 1-3.001-.001 1.5 1.5 0 0 1 3.001.001z" fill="#69CDB1"/><path d="M590.388 315.222c-2.088 2.214-4.698 4.068-7.83 5.562l.828 1.494c.9-.45 1.764-.918 2.592-1.422v1.62h4.158v2.7h-5.076v1.656h5.076v2.844h-6.678v1.674h15.102v-1.674h-6.696v-2.844h5.058v-1.656h-5.058v-2.7h4.158v-1.62c.792.504 1.62.954 2.52 1.386l.846-1.53a25.326 25.326 0 0 1-7.776-5.49h-1.224zm-4.374 5.616c1.944-1.206 3.618-2.556 4.986-4.068a23.907 23.907 0 0 0 4.986 4.068h-9.972z" fill="#fff"/><path d="M603.258 324.06v3.834h5.13v1.764c0 .432-.162.648-.45.648-.63 0-1.296-.036-1.998-.108l.36 1.584h2.196c1.044 0 1.584-.576 1.584-1.728v-2.16h4.842v-3.834h-11.664zm9.99 2.502h-8.334v-1.188h8.334v1.188zm-10.35-10.872v5.418h4.806c.162.252.324.504.468.792h-7.182v1.422h16.02V321.9h-6.984c-.108-.27-.234-.54-.36-.792h5.454v-5.418h-12.222zm10.548 4.086h-8.874v-.774h8.874v.774zm-8.874-1.98v-.774h8.874v.774h-8.874zm7.614 10.512l-.702 1.35a25.745 25.745 0 0 1 5.148 2.034l.612-1.566a24.249 24.249 0 0 0-5.058-1.818zm-7.002-.126c-.99.828-2.466 1.548-4.41 2.124l.954 1.404c1.836-.63 3.33-1.44 4.518-2.43l-1.062-1.098z" fill="#fff"/><path d="M624.21 324.222h2.07v2.07h-2.07v-2.07zm3.546 2.07v-2.07h2.07v2.07h-2.07zm2.07-3.474h-2.07v-2.034h2.07v2.034zm-3.546-2.034v2.034h-2.07v-2.034h2.07zm-7.326-4.68v1.656h16.092v-1.656h-16.092zm13.878 4.554v8.712h-11.628v-8.658h-1.656v11.106h1.656v-.828h11.628v.828h1.656v-11.16h-1.656zm-10.26-1.422v8.604h8.892v-8.604h-8.892z" fill="#fff"/><path d="M642.12 319.884v3.096h2.7c-.882.72-2.07 1.242-3.582 1.548l.63 1.404c1.728-.378 3.114-1.026 4.194-1.962.18.198.342.432.522.684-1.278 1.044-3.06 1.89-5.364 2.556l.828 1.404c2.142-.738 3.87-1.674 5.166-2.808.108.252.216.522.288.81-1.512 1.35-3.636 2.466-6.354 3.33l.864 1.458c2.34-.864 4.248-1.944 5.724-3.24 0 .072.018.162.018.252 0 .756-.108 1.26-.306 1.53-.216.252-.504.378-.846.414-.36.018-.828.036-1.368.036l.522 1.53c.378 0 .72-.018 1.044-.054.972-.108 1.656-.378 2.016-.792.432-.504.648-1.386.648-2.664a9.996 9.996 0 0 0-.27-1.854l.504-.216c.54 1.728 1.422 3.312 2.61 4.752l1.134-1.404c-1.17-1.17-1.998-2.502-2.466-3.996a12.702 12.702 0 0 0 1.656-1.116l-1.116-1.278c-.774.72-1.728 1.332-2.844 1.836-.36-.774-.864-1.494-1.476-2.16h5.166v-4.23h-3.096c.36-.396.738-.828 1.116-1.332v-1.08h-4.32l.648-.864-1.728-.396c-1.188 1.602-2.61 2.862-4.266 3.762l1.044 1.26c.108-.072.216-.144.36-.216zm5.022-1.134h-3.438c.396-.342.81-.72 1.224-1.116h3.438c-.396.396-.81.774-1.224 1.116zm3.564 2.844h-2.934c.18-.45.324-.936.45-1.458h2.484v1.458zm-4.698 0h-2.232v-1.458h2.808a5.73 5.73 0 0 1-.576 1.458zm-7.416.702v9.54h1.71v-12.474c.54-1.116.99-2.286 1.35-3.51l-1.584-.756c-.756 2.772-1.908 5.184-3.492 7.254l.558 1.836a24.057 24.057 0 0 0 1.458-1.89z" fill="#fff"/><path d="M472 472a8 8 0 0 1 8-8h240a8 8 0 0 1 8 8v36a8 8 0 0 1-8 8H480a8 8 0 0 1-8-8v-36z" fill="#00BF8B"/><path d="M472 472a8 8 0 0 1 8-8h240a8 8 0 0 1 8 8v36a8 8 0 0 1-8 8H480a8 8 0 0 1-8-8v-36z" fill="url(#m)" fill-opacity=".4"/><path d="M560.939 493.061a1.5 1.5 0 0 1 2.122 0l3.535 3.535a1.5 1.5 0 0 1-2.121 2.122l-3.536-3.536a1.501 1.501 0 0 1 0-2.121z" fill="#CDEFE6"/><path d="M566 489a9 9 0 0 1-9 9 9 9 0 0 1-9-9 9 9 0 0 1 9-9 9 9 0 0 1 9 9z" fill="#fff"/><path fill-rule="evenodd" clip-rule="evenodd" d="M562.625 485.219a1 1 0 0 1 .156 1.406l-4 5a1.001 1.001 0 0 1-1.54.026L555 489.037l-2.241 2.614a1 1 0 1 1-1.518-1.302l3-3.5a1.001 1.001 0 0 1 1.518 0l2.214 2.583 3.246-4.057a1 1 0 0 1 1.406-.156z" fill="#69CDB1"/><path d="M586.068 487.774h4.14v2.754h-4.14v-2.754zm-.09 4.338h4.23v5.13h1.728v-5.13h4.464v2.682c0 .702-.306 1.062-.882 1.062-.612 0-1.26-.036-1.962-.09l.45 1.674h2.07c1.368 0 2.07-.684 2.07-2.034v-13.554H584.34v8.82c-.036 2.376-.594 4.338-1.674 5.886l1.314 1.17c1.116-1.476 1.782-3.348 1.998-5.616zm10.422-1.584h-4.464v-2.754h4.464v2.754zm0-4.32h-4.464v-2.7h4.464v2.7zm-6.192-2.7v2.7h-4.14v-2.7h4.14z" fill="#fff"/><path d="M614.112 484.984v3.06h-9.81v-3.06h9.81zm-9.828 4.734h11.556v-6.408h-5.706a27.01 27.01 0 0 0-.882-2.214l-1.836.288c.36.594.684 1.242.972 1.926h-5.778v5.886c-.018 3.096-.72 5.634-2.088 7.596l1.26 1.152c1.566-2.304 2.394-5.058 2.502-8.226z" fill="#fff"/><path d="M618.972 484.408v1.638h1.962v3.708c-.72.252-1.476.45-2.232.63l.414 1.692c.612-.198 1.206-.414 1.818-.63v3.978c0 .486-.216.738-.612.738s-.828-.036-1.26-.108l.36 1.602h1.476c1.116 0 1.692-.612 1.692-1.8v-5.112c.504-.234.99-.486 1.494-.738v-1.674c-.486.252-.99.504-1.494.756v-3.042h1.548v-1.638h-1.548v-3.15h-1.656v3.15h-1.962zm11.196-3.276l-1.764.288c.234.432.45.918.666 1.44h-4.32v3.33h1.62v-1.782h6.768v1.782h1.584v-3.33h-3.978a17.623 17.623 0 0 0-.576-1.728zm-2.322 3.87c-.576 1.224-1.476 2.214-2.664 2.97l1.242 1.08c1.17-.828 2.124-1.98 2.844-3.492l-1.422-.558zm3.564-.144l-1.26.792c1.062 1.242 1.908 2.376 2.538 3.384l1.314-.918c-.594-.936-1.458-2.016-2.592-3.258zm-6.012 4.68v1.584h5.382c-2.214.972-3.798 1.908-4.752 2.79-.666.648-.99 1.26-.99 1.872.036 1.188.828 1.782 2.376 1.8h4.878c.9-.018 1.584-.198 2.034-.558.36-.306.648-1.224.9-2.754l-1.62-.522c-.144 1.152-.288 1.818-.45 2.016-.162.18-.468.288-.936.288h-4.716c-.432-.018-.648-.162-.648-.432 0-.252.162-.558.486-.882.936-.918 3.114-2.178 6.534-3.762v-1.44h-8.478z" fill="#fff"/><path d="M638.97 497.692c1.08 0 1.62-.63 1.62-1.89v-4.86c.54-.234 1.062-.486 1.584-.756v-1.692c-.522.288-1.044.558-1.584.81v-3.114h1.602v-1.638h-1.602v-3.24h-1.656v3.24h-1.98v1.638h1.98v3.78c-.72.252-1.458.486-2.214.666l.396 1.638c.612-.198 1.206-.414 1.818-.63v3.744c0 .54-.18.81-.54.81-.468 0-.954-.054-1.458-.126l.36 1.62h1.674zm11.862-7.02h-1.278v-3.168h-1.602v3.168h-1.242v-2.34h-1.548v3.798h2.79v3.33h-1.602v-2.448h-1.584v4.662h1.584v-.702h4.842v.702h1.584v-4.662h-1.584v2.448h-1.638v-3.33h2.826v-3.798h-1.548v2.34zm.18-7.254v1.71h-6.498v-1.71h6.498zm-6.498 3.222h8.136v-4.788h-9.792v6.246c-.018 3.51-.63 6.372-1.818 8.604l1.278 1.152c1.44-2.718 2.178-5.976 2.196-9.756v-1.458z" fill="#fff"/><path d="M364 140a8 8 0 0 1 8-8h72a8 8 0 0 1 8 8v368a8 8 0 0 1-8 8h-72a8 8 0 0 1-8-8V140z" fill="#E6F9F3"/><path opacity=".2" fill-rule="evenodd" clip-rule="evenodd" d="M372 323h-8v2h8v-2zm16 0h-8v2h8v-2zm8 0h8v2h-8v-2zm24 0h-8v2h8v-2zm8 0h8v2h-8v-2zm24 0h-8v2h8v-2z" fill="#00BF8B"/><path d="M400.622 221.636v-9.324h6.51v-1.302h-7.84v11.97h7.952v-1.344h-6.622zm-4.816-10.92l-.952.924c1.176.756 2.1 1.47 2.744 2.128l.938-.952c-.742-.7-1.652-1.4-2.73-2.1zm-.28 3.444l-.938.91c1.092.728 1.946 1.414 2.548 2.058l.952-.966c-.7-.672-1.554-1.33-2.562-2.002zm1.4 4.158a35.556 35.556 0 0 1-2.184 4.466l1.372.616a42.267 42.267 0 0 0 2.044-4.606l-1.232-.476z" fill="#00BF8B"/><path d="M414.44 218.682v4.732h1.232v-4.886c.154-.028.322-.042.49-.07.532 2.044 2.002 3.682 4.41 4.886l.672-1.12c-1.036-.434-1.876-.952-2.534-1.554.756-.434 1.372-.868 1.848-1.302l-.714-.924c-.504.504-1.134.98-1.862 1.428a4.787 4.787 0 0 1-.812-1.596 17.829 17.829 0 0 0 2.562-.742l-.588-.994c-2.506.812-5.586 1.218-9.24 1.218l.378 1.12c.518 0 1.036-.014 1.554-.028-.35.28-.728.518-1.148.742a8.825 8.825 0 0 1-1.736.63l.63 1.022c.84-.322 1.498-.616 1.974-.868a6.741 6.741 0 0 0 1.372-1.008l-.868-.532a42.49 42.49 0 0 0 2.38-.154zm-5.39-7.728v1.036h.98v3.85c-.406.028-.826.07-1.26.098l.126 1.078c1.624-.14 3.122-.308 4.508-.49v.63h1.148v-.798l.882-.14v-.98l-.882.126v-3.374h.938v-1.036h-6.44zm2.114 4.788v-.728h2.24v.504c-.714.084-1.456.154-2.24.224zm0-1.624v-.602h2.24v.602h-2.24zm0-1.498v-.63h2.24v.63h-2.24zm5.32.21l-.812.784c.7.434 1.344.868 1.946 1.302a5.435 5.435 0 0 1-1.988 1.106l.518 1.064a7.09 7.09 0 0 0 2.45-1.428c.56.434 1.05.868 1.498 1.302l.868-.854a34.385 34.385 0 0 0-1.582-1.302 9.975 9.975 0 0 0 1.372-2.45v-.966h-4.956v1.12h3.598a8.874 8.874 0 0 1-.98 1.582 28.97 28.97 0 0 0-1.932-1.26zm-3.444 7.504a9.964 9.964 0 0 1-3.948 1.918l.644 1.036c1.092-.392 1.932-.742 2.534-1.078a10.71 10.71 0 0 0 1.764-1.274l-.994-.602z" fill="#00BF8B"/><path d="M386.804 230.45c-1.218 1.288-3.066 2.156-5.544 2.604l.784 1.218c1.47-.322 2.744-.798 3.836-1.442h3.766c-.742.994-1.764 1.764-3.052 2.31-.42-.504-.868-.98-1.33-1.428l-1.148.546c.42.392.84.826 1.232 1.302-.924.252-1.974.406-3.15.476l.56 1.204c4.102-.336 6.902-1.862 8.414-4.55v-1.036h-3.738c.182-.182.364-.378.56-.588l-1.19-.616zm-.224 8.75l-1.176.56c.462.448.91.966 1.344 1.526-1.526.476-3.346.714-5.46.714l.532 1.274c5.46-.14 9.184-1.848 11.186-5.124v-1.036h-3.57c.28-.224.56-.476.812-.742l-1.134-.616c-1.428 1.512-3.682 2.408-6.734 2.702l.798 1.19c1.638-.322 3.066-.77 4.284-1.33h3.836c-.812 1.05-1.918 1.876-3.29 2.492a17.49 17.49 0 0 0-1.428-1.61z" fill="#00BF8B"/><path d="M395.722 230.744l-.896.854c1.064.784 1.904 1.498 2.492 2.17l.91-.896c-.686-.7-1.526-1.414-2.506-2.128zm-.252 3.43l-.896.854c1.008.756 1.778 1.456 2.324 2.1l.896-.91c-.63-.672-1.4-1.358-2.324-2.044zm1.344 3.822a40.143 40.143 0 0 1-2.114 4.858l1.246.546a44.59 44.59 0 0 0 2.016-4.956l-1.148-.448zm3.892-4.746v5.11h2.296v3.416c0 .336-.14.504-.42.504-.336 0-.672-.028-1.022-.084l.28 1.204h1.176c.826 0 1.246-.448 1.246-1.316v-3.724h2.24v-5.11h-2.618c.126-.35.224-.714.308-1.078h3.01v-1.176h-8.554v4.844c-.042 2.87-.49 5.11-1.33 6.72l1.008.896c1.008-1.918 1.54-4.452 1.596-7.616v-3.668h3.01c-.084.364-.182.714-.308 1.078h-1.918zm4.634 4.06h-3.472v-1.022h3.472v1.022zm-3.472-1.988v-1.05h3.472v1.05h-3.472zm-.938 3.892a8.477 8.477 0 0 1-1.344 2.828l1.064.672c.63-.91 1.12-1.988 1.456-3.248l-1.176-.252zm5.096-.07l-1.106.378c.504.924.966 1.974 1.386 3.178l1.12-.49a20.444 20.444 0 0 0-1.4-3.066z" fill="#00BF8B"/><path d="M417.338 233.824h1.806c-.056 1.68-.308 3.164-.77 4.452-.49-1.092-.896-2.366-1.204-3.822.056-.196.112-.406.168-.63zm.434 5.81a7.782 7.782 0 0 1-2.478 2.702l.686 1.106a9.443 9.443 0 0 0 2.464-2.59c.672 1.078 1.456 1.946 2.366 2.604l.742-1.078c-.952-.644-1.764-1.554-2.464-2.716.756-1.61 1.176-3.556 1.26-5.838h.812v-1.274h-3.556c.112-.574.196-1.176.28-1.82l-1.302-.224c-.28 2.604-.812 4.676-1.596 6.216l.84 1.036c.252-.42.476-.896.7-1.4.35 1.218.77 2.31 1.246 3.276zm-6.636-2.618a14.79 14.79 0 0 1-.294.812h-1.974v1.134h1.47a34.698 34.698 0 0 1-.91 1.666c.644.252 1.26.49 1.834.728-.756.392-1.666.7-2.716.952l.616 1.092c1.386-.364 2.548-.84 3.472-1.442.77.35 1.428.686 1.974 1.022l.714-1.036c-.532-.28-1.092-.56-1.666-.812a5.24 5.24 0 0 0 1.344-2.226v-1.078h-2.856c.084-.224.154-.434.238-.658l-1.246-.154zm1.302 3.612a21.5 21.5 0 0 0-1.428-.532c.224-.364.434-.742.63-1.134h2.17a4.939 4.939 0 0 1-1.372 1.666zm-2.268-9.898l-1.05.35c.322.518.63 1.12.91 1.792l.952-.434a12.022 12.022 0 0 0-.812-1.708zm4.018-.014a8.885 8.885 0 0 1-1.05 1.722l.924.476c.434-.574.784-1.162 1.064-1.75l-.938-.448zm-5.292 2.394v1.162h1.764c-.42.644-1.106 1.246-2.086 1.806l.658 1.078c1.078-.756 1.848-1.638 2.31-2.646v2.366h1.218v-1.568c.434.28.952.672 1.568 1.162l.7-1.05c-.77-.406-1.526-.77-2.268-1.078v-.07h2.436v-1.162h-2.436v-2.576h-1.218v2.576h-2.646z" fill="#00BF8B"/><path d="M424.31 243.316c.868 0 1.316-.462 1.316-1.386v-3.878c.392-.182.784-.378 1.19-.574v-1.302c-.392.21-.798.406-1.19.588v-2.394h1.232v-1.274h-1.232v-2.534h-1.288v2.534h-1.568v1.274h1.568v2.898c-.602.21-1.204.392-1.82.532l.336 1.316c.49-.168.98-.336 1.484-.518v3.01c0 .364-.168.546-.476.546-.336 0-.672-.042-1.022-.098l.28 1.26h1.19zm4.354-6.076h2.52v1.442h-2.24v4.76h1.232v-.602h3.318v.602h1.232v-4.76h-2.254v-1.442h2.884v-1.218h-2.884v-1.4h2.548v-3.626h-7.574v4.564c-.014 2.842-.49 5.166-1.428 6.972l1.036.924c.896-1.792 1.428-3.864 1.61-6.216zm2.52-2.618v1.4h-2.464c0-.154.014-.308.014-.462v-.938h2.45zm-1.008 7.042v-1.806h3.318v1.806h-3.318zm3.556-9.45v1.218h-4.998v-1.218h4.998z" fill="#00BF8B"/><path d="M399.964 404.248v6.846h6.734v-6.846h-6.734zm5.39 5.558h-4.06v-4.284h4.06v4.284zm-8.918-6.174l-.938.91c.994.728 1.764 1.428 2.31 2.072l.91-.924a17.661 17.661 0 0 0-2.282-2.058zm-1.876 4.06v1.274h1.932v5.152c0 .28-.126.504-.35.7l.504 1.204a19.232 19.232 0 0 0 2.702-2.212l-.364-1.4c-.434.434-.84.826-1.218 1.176v-5.894h-3.206zm6.874 4.046c-.672 1.54-1.47 2.842-2.408 3.934l1.176.854c.924-1.19 1.736-2.59 2.408-4.214l-1.176-.574zm3.682-.056l-1.078.686c1.022 1.498 1.834 2.856 2.422 4.088l1.148-.798c-.574-1.134-1.4-2.464-2.492-3.976z" fill="#00BF8B"/><path d="M411.43 408.7c-.028.504-.07.98-.126 1.428h-2.52v1.246h2.338a6.814 6.814 0 0 1-.42 1.386c-.434 1.008-1.176 1.876-2.226 2.604l.854 1.05c1.204-.868 2.058-1.904 2.576-3.108.224-.504.392-1.148.532-1.932h1.834c-.028 1.582-.07 2.52-.14 2.8-.112.616-.462.924-1.078.924-.308 0-.658-.028-1.078-.07l.308 1.176c.448.028.784.056.98.056 1.26 0 1.96-.504 2.1-1.512.14-.588.21-2.128.21-4.62h-2.968c.042-.448.084-.924.112-1.428h2.688v-4.704h-6.146v4.704h2.17zm5.32-3.948v8.638h1.302v-8.638h-1.302zm2.758 11.564c.966 0 1.456-.518 1.456-1.554v-11.2h-1.316v10.864c0 .462-.21.7-.602.7a21.36 21.36 0 0 1-1.848-.084l.294 1.274h2.016zm-5.376-8.82h-3.598v-2.31h3.598v2.31z" fill="#00BF8B"/><path d="M383.164 428.602h3.22v2.142h-3.22v-2.142zm-.07 3.374h3.29v3.99h1.344v-3.99h3.472v2.086c0 .546-.238.826-.686.826-.476 0-.98-.028-1.526-.07l.35 1.302h1.61c1.064 0 1.61-.532 1.61-1.582v-10.542H381.82v6.86c-.028 1.848-.462 3.374-1.302 4.578l1.022.91c.868-1.148 1.386-2.604 1.554-4.368zm8.106-1.232h-3.472v-2.142h3.472v2.142zm0-3.36h-3.472v-2.1h3.472v2.1zm-4.816-2.1v2.1h-3.22v-2.1h3.22z" fill="#00BF8B"/><path d="M404.976 426.432v2.38h-7.63v-2.38h7.63zm-7.644 3.682h8.988v-4.984h-4.438a21.008 21.008 0 0 0-.686-1.722l-1.428.224c.28.462.532.966.756 1.498h-4.494v4.578c-.014 2.408-.56 4.382-1.624 5.908l.98.896c1.218-1.792 1.862-3.934 1.946-6.398z" fill="#00BF8B"/><path d="M416.974 423.506v1.4h-2.324v1.218h2.324v1.33h-3.094v1.26h7.518v-1.26h-3.08v-1.33h2.464v-1.218h-2.464v-1.4h-1.344zm-2.786 6.552v1.26h4.312v3.304c0 .364-.154.56-.448.56-.504 0-1.036-.042-1.596-.098l.28 1.26h1.778c.84 0 1.274-.462 1.274-1.386v-3.64h1.484v-1.26h-1.484v-.798H418.5v.798h-4.312zm1.19 1.68l-1.036.658c.672.784 1.218 1.512 1.624 2.17l1.05-.742c-.392-.588-.938-1.288-1.638-2.086zm-5.264-4.116h1.022v3.444c-.854.252-1.722.462-2.59.63l.322 1.288c.77-.196 1.526-.42 2.268-.672v4.13h1.274v-4.592c.392-.14.784-.308 1.176-.476v-1.26c-.378.168-.77.322-1.176.49v-2.982h1.12v-1.288h-1.12v-2.8h-1.274v2.8h-.84c.056-.532.084-1.064.112-1.61l-1.204-.084a18.969 18.969 0 0 1-.714 4.62l1.162.336c.182-.644.336-1.302.462-1.974z" fill="#00BF8B"/><path d="M430.988 425.508v9.114h-1.792v-7.14h-1.302v7.14h-1.232v1.302h8.89v-1.302h-3.234v-4.424h2.604v-1.232h-2.604v-3.458h2.898v-1.274h-8.148v1.274h3.92zm-5.726-2.086c-.588 1.288-1.512 2.422-2.758 3.388l.406 1.316c1.652-1.232 2.814-2.618 3.514-4.158l-1.162-.546zm.462 3.64c-.672 1.4-1.708 2.618-3.108 3.654l.392 1.288c.476-.35.924-.714 1.344-1.078v5.516h1.288v-6.874a9.112 9.112 0 0 0 1.232-1.974l-1.148-.532z" fill="#00BF8B"/><path d="M748 140a8 8 0 0 1 8-8h72a8 8 0 0 1 8 8v368a8 8 0 0 1-8 8h-72a8 8 0 0 1-8-8V140z" fill="#E9EAEC"/><path opacity=".1" fill-rule="evenodd" clip-rule="evenodd" d="M756 323h-8v2h8v-2zm16 0h-8v2h8v-2zm8 0h8v2h-8v-2zm24 0h-8v2h8v-2zm8 0h8v2h-8v-2zm24 0h-8v2h8v-2z" fill="#1F2D3D"/><path d="M773.338 223.824h1.806c-.056 1.68-.308 3.164-.77 4.452-.49-1.092-.896-2.366-1.204-3.822.056-.196.112-.406.168-.63zm.434 5.81a7.782 7.782 0 0 1-2.478 2.702l.686 1.106a9.443 9.443 0 0 0 2.464-2.59c.672 1.078 1.456 1.946 2.366 2.604l.742-1.078c-.952-.644-1.764-1.554-2.464-2.716.756-1.61 1.176-3.556 1.26-5.838h.812v-1.274h-3.556c.112-.574.196-1.176.28-1.82l-1.302-.224c-.28 2.604-.812 4.676-1.596 6.216l.84 1.036c.252-.42.476-.896.7-1.4.35 1.218.77 2.31 1.246 3.276zm-6.636-2.618a14.79 14.79 0 0 1-.294.812h-1.974v1.134h1.47a34.698 34.698 0 0 1-.91 1.666c.644.252 1.26.49 1.834.728-.756.392-1.666.7-2.716.952l.616 1.092c1.386-.364 2.548-.84 3.472-1.442.77.35 1.428.686 1.974 1.022l.714-1.036c-.532-.28-1.092-.56-1.666-.812a5.24 5.24 0 0 0 1.344-2.226v-1.078h-2.856c.084-.224.154-.434.238-.658l-1.246-.154zm1.302 3.612a21.5 21.5 0 0 0-1.428-.532c.224-.364.434-.742.63-1.134h2.17a4.939 4.939 0 0 1-1.372 1.666zm-2.268-9.898l-1.05.35c.322.518.63 1.12.91 1.792l.952-.434a12.022 12.022 0 0 0-.812-1.708zm4.018-.014a8.885 8.885 0 0 1-1.05 1.722l.924.476c.434-.574.784-1.162 1.064-1.75l-.938-.448zm-5.292 2.394v1.162h1.764c-.42.644-1.106 1.246-2.086 1.806l.658 1.078c1.078-.756 1.848-1.638 2.31-2.646v2.366h1.218v-1.568c.434.28.952.672 1.568 1.162l.7-1.05c-.77-.406-1.526-.77-2.268-1.078v-.07h2.436v-1.162h-2.436v-2.576h-1.218v2.576h-2.646z" fill="#1F2D3D"/><path d="M780.31 233.316c.868 0 1.316-.462 1.316-1.386v-3.878c.392-.182.784-.378 1.19-.574v-1.302c-.392.21-.798.406-1.19.588v-2.394h1.232v-1.274h-1.232v-2.534h-1.288v2.534h-1.568v1.274h1.568v2.898c-.602.21-1.204.392-1.82.532l.336 1.316c.49-.168.98-.336 1.484-.518v3.01c0 .364-.168.546-.476.546-.336 0-.672-.042-1.022-.098l.28 1.26h1.19zm4.354-6.076h2.52v1.442h-2.24v4.76h1.232v-.602h3.318v.602h1.232v-4.76h-2.254v-1.442h2.884v-1.218h-2.884v-1.4h2.548v-3.626h-7.574v4.564c-.014 2.842-.49 5.166-1.428 6.972l1.036.924c.896-1.792 1.428-3.864 1.61-6.216zm2.52-2.618v1.4h-2.464c0-.154.014-.308.014-.462v-.938h2.45zm-1.008 7.042v-1.806h3.318v1.806h-3.318zm3.556-9.45v1.218h-4.998v-1.218h4.998z" fill="#1F2D3D"/><path d="M792.588 228.164v1.288h8.442v2.38c0 .28-.196.434-.56.434-.504 0-1.05-.028-1.61-.084l.308 1.302h1.764c.952 0 1.442-.448 1.442-1.33v-2.702h3.024v-1.288h-3.024v-.714h-1.344v.714h-8.442zm10.752-7.182h-9.338v4.788c0 .854.476 1.288 1.428 1.288h8.26c.63-.028 1.036-.252 1.218-.7.098-.28.196-.728.28-1.372l-1.26-.406c-.056.56-.126.896-.196 1.008-.084.14-.238.224-.462.238h-7.322c-.406 0-.602-.196-.602-.574v-.714h7.994v-3.556zm-7.994 2.352v-1.148h6.664v1.148h-6.664zm.742 6.286l-.952.924c.966.784 1.722 1.526 2.254 2.212l1.008-.994c-.63-.714-1.4-1.428-2.31-2.142z" fill="#1F2D3D"/><path d="M816.612 225.28h-2.926v-4.774h-1.372v4.774h-2.926v-3.71h-1.344v4.998h4.27v4.83h-3.626v-3.71h-1.33v5.656h1.33v-.672h8.624v.672h1.33v-5.656h-1.33v3.71h-3.626v-4.83h4.27v-4.998h-1.344v3.71z" fill="#1F2D3D"/><path d="M768.472 405.004l-3.85 9.996h1.624l.938-2.576h4.298l.938 2.576h1.638l-3.85-9.996h-1.736zm-.826 6.16l1.666-4.522h.056l1.652 4.522h-3.374z" fill="#1F2D3D"/><path d="M775.036 405.004V415h1.526v-3.892h2.59c2.394 0 3.598-1.022 3.598-3.066 0-2.03-1.19-3.038-3.57-3.038h-4.144zm1.526 1.302h2.492c.742 0 1.288.14 1.638.42.35.252.532.7.532 1.316 0 .616-.182 1.064-.518 1.344-.35.28-.896.42-1.652.42h-2.492v-3.5z" fill="#1F2D3D"/><path d="M784.196 405.004V415h1.512v-9.996h-1.512z" fill="#1F2D3D"/><path d="M796.362 409.932v1.288h3.066v3.444h-3.584v1.302h8.792v-1.302h-3.85v-3.444h3.234v-1.288h-3.234v-2.464h-1.358v2.464h-3.066zm-2.394 1.162v5.39h1.316v-6.874a16.694 16.694 0 0 0 1.904-2.996h7.448v-1.302h-6.86c.224-.574.42-1.162.602-1.764l-1.372-.154a14.91 14.91 0 0 1-.7 1.918h-3.99v1.302h3.36c-.952 1.708-2.24 3.248-3.864 4.592l.84 1.092c.462-.392.896-.784 1.316-1.204z" fill="#1F2D3D"/><path d="M810.936 413.46c-1.372.504-2.996.91-4.844 1.218l.168 1.302c1.75-.322 3.304-.742 4.676-1.274v-1.246zm-2.688-10.024c-.504 1.54-1.078 2.954-1.75 4.214-.168.238-.35.406-.546.49l.322 1.204c.714-.098 1.4-.196 2.072-.28-.644 1.134-1.176 1.932-1.596 2.394-.168.154-.364.28-.602.378l.364 1.204c1.344-.168 2.772-.518 4.284-1.022v-1.19c-.924.308-1.82.56-2.716.756.784-1.008 1.736-2.604 2.87-4.788l-1.19-.448c-.266.532-.518 1.05-.77 1.526-.504.07-.994.126-1.484.182.672-1.05 1.344-2.422 2.016-4.116l-1.274-.504zm9.506 2.45l-3.346.462v-2.828h-1.33v3.01l-2.03.294.196 1.232 1.862-.266c.028.56.056 1.092.112 1.61l-2.408.378.182 1.26 2.394-.378c.056.308.112.616.182.91.168.7.364 1.344.616 1.932-.98.728-2.1 1.288-3.36 1.68l.77 1.064a10.667 10.667 0 0 0 3.192-1.596c.07.112.154.238.252.364.63.84 1.302 1.274 2.002 1.288.784 0 1.372-.91 1.792-2.702l-1.134-.756c-.224 1.33-.49 2.002-.812 2.002-.336 0-.714-.336-1.134-.98.812-.728 1.554-1.61 2.254-2.618l-1.05-.714a12.225 12.225 0 0 1-1.75 2.1 10.786 10.786 0 0 1-.448-1.764l-.056-.406 3.626-.574-.196-1.26-3.584.56a26.284 26.284 0 0 1-.112-1.582l3.5-.49-.182-1.232zm-1.778-2.422l-1.008.644c.644.63 1.162 1.204 1.54 1.736l1.036-.728c-.364-.462-.896-1.008-1.568-1.652z" fill="#1F2D3D"/><path d="M766.688 428.49h1.96v2.044h-1.96v-2.044zm1.96-1.19h-1.96v-2.072h1.96v2.072zm-1.988 4.438h1.988v2.814c0 .49-.154.742-.448.742-.336 0-.686-.028-1.078-.07l.322 1.176h1.12c.854 0 1.288-.476 1.288-1.428v-10.948h-4.354v6.874c-.014 1.89-.294 3.444-.854 4.662l1.008.91c.574-1.246.91-2.828 1.008-4.732zm5.39-1.386h.182a8.987 8.987 0 0 0 1.68 3.514 6.703 6.703 0 0 1-1.862 1.484v-4.998zm0 5.04l.686 1.036a7.388 7.388 0 0 0 2.044-1.596 11.174 11.174 0 0 0 2.086 1.582l.658-1.12a11.09 11.09 0 0 1-2.002-1.484c.588-.966 1.008-2.142 1.26-3.514v-1.12h-4.732v-3.948h3.36c-.028.938-.084 1.526-.168 1.764-.084.196-.196.322-.336.364-.14.042-.364.07-.658.07-.392 0-.7-.014-.924-.014l.35 1.12h1.176c.896 0 1.428-.294 1.596-.882.168-.602.252-1.806.252-3.626h-5.894v12.432h1.246v-1.064zm1.316-5.04h2.24a9.329 9.329 0 0 1-.966 2.478 7.713 7.713 0 0 1-1.274-2.478z" fill="#1F2D3D"/><path d="M782.634 423.464c-.574 1.358-1.68 2.506-3.318 3.444l.812 1.064c.574-.35 1.092-.728 1.568-1.134.574.476 1.19.924 1.862 1.316-1.456.546-3.136.938-5.012 1.176l.616 1.246c2.212-.336 4.172-.882 5.852-1.638 1.736.826 3.696 1.358 5.866 1.61l.602-1.246c-1.848-.168-3.514-.546-5.012-1.106a12.23 12.23 0 0 0 3.052-2.506v-1.078h-5.992a8.58 8.58 0 0 0 .462-.952l-1.358-.196zm2.366 4.074a13.126 13.126 0 0 1-2.422-1.582.447.447 0 0 1 .084-.098h4.914a12.385 12.385 0 0 1-2.576 1.68zm-1.008 2.254c0 .504-.056.98-.14 1.428h-4.34v1.19h3.934c-.084.182-.196.364-.308.546-.7.966-2.198 1.778-4.48 2.45l.882 1.078c2.59-.826 4.228-1.862 4.928-3.122.168-.294.308-.616.434-.952h3.794c-.042 1.232-.154 2.002-.336 2.296-.182.28-.63.434-1.344.448a76.958 76.958 0 0 0-1.764-.084l.336 1.204c.672.042 1.26.07 1.736.07.98 0 1.68-.252 2.072-.728.392-.476.602-1.946.63-4.396h-4.83c.07-.448.112-.924.112-1.428h-1.316z" fill="#1F2D3D"/><path d="M798.3 423.52v1.722h-5.334v1.288h5.334v1.834h-4.27v1.246h.98c.21.7.56 1.358 1.05 1.974a10.336 10.336 0 0 0 1.834 1.834c-1.442.812-3.192 1.456-5.236 1.918l.77 1.19c2.184-.588 4.06-1.358 5.614-2.324.658.392 1.372.756 2.142 1.092 1.092.462 2.24.854 3.458 1.176l.77-1.176a26.325 26.325 0 0 1-3.178-.938 17.51 17.51 0 0 1-2.058-.938c1.4-1.078 2.478-2.366 3.22-3.878v-1.176h-3.724v-1.834h5.362v-1.288h-5.362v-1.722H798.3zm.714 9.198a10.05 10.05 0 0 1-1.596-1.372 5.213 5.213 0 0 1-1.092-1.736h5.558c-.672 1.19-1.638 2.226-2.87 3.108z" fill="#1F2D3D"/><path d="M814.652 423.604v1.302h-2.632v1.218h2.632v1.33h-3.136v1.26h7.728v-1.26h-3.29v-1.33h2.758v-1.218h-2.758v-1.302h-1.302zm-3.36 6.594v1.246h4.984v3.164c0 .336-.182.518-.532.518-.532 0-1.078-.028-1.666-.07l.294 1.288h1.848c.924 0 1.386-.476 1.386-1.4v-3.5h1.652v-1.246h-1.652v-.966h-1.33v.966h-4.984zm-2.982 6.118c.896 0 1.358-.476 1.358-1.4v-3.78c.448-.196.91-.406 1.358-.63v-1.358c-.448.224-.896.448-1.358.658v-2.436h1.344v-1.274h-1.344v-2.394h-1.302v2.394h-1.596v1.274h1.596v2.926c-.602.196-1.204.364-1.82.504l.336 1.344c.504-.154.994-.322 1.484-.49v2.926c0 .364-.182.546-.518.546s-.686-.028-1.05-.084l.28 1.274h1.232zm4.69-4.424l-1.078.658c.644.826 1.162 1.582 1.54 2.254l1.05-.728c-.35-.63-.854-1.358-1.512-2.184z" fill="#1F2D3D"/><path fill-rule="evenodd" clip-rule="evenodd" d="M256 139h-20v-2h20c9.389 0 17 7.611 17 17v170h-2V154c0-8.284-6.716-15-15-15z" fill="#D3DCE6"/><path fill-rule="evenodd" clip-rule="evenodd" d="M256 509h-20v2h20c9.389 0 17-7.611 17-17V324h-2v170c0 8.284-6.716 15-15 15z" fill="#D3DCE6"/><path d="M192 137h24v2h-24v-2z" fill="#D3DCE6"/><path fill-rule="evenodd" clip-rule="evenodd" d="M218 139a1 1 0 1 0 0-2 1 1 0 0 0 0 2zm0 2a3 3 0 1 0 0-6 3 3 0 0 0 0 6z" fill="#00BF8B"/><path d="M225 138a1 1 0 1 1-2 0 1 1 0 0 1 2 0z" fill="#00BF8B"/><path d="M229 138a1 1 0 1 1-2 0 1 1 0 0 1 2 0z" fill="#00BF8B"/><path d="M233 138a1 1 0 1 1-2 0 1 1 0 0 1 2 0z" fill="#00BF8B"/><path d="M237 138a1 1 0 1 1-2 0 1 1 0 0 1 2 0z" fill="#00BF8B"/><path d="M192 230h24v2h-24v-2z" fill="#D3DCE6"/><path d="M236 230h36v2h-36v-2z" fill="#D3DCE6"/><path fill-rule="evenodd" clip-rule="evenodd" d="M218 232a1 1 0 1 0 0-2 1 1 0 0 0 0 2zm0 2a3 3 0 1 0 0-6 3 3 0 0 0 0 6z" fill="#00BF8B"/><path d="M225 231a1 1 0 1 1-2 0 1 1 0 0 1 2 0z" fill="#00BF8B"/><path d="M229 231a1 1 0 1 1-2 0 1 1 0 0 1 2 0z" fill="#00BF8B"/><path d="M233 231a1 1 0 1 1-2 0 1 1 0 0 1 2 0z" fill="#00BF8B"/><path d="M237 231a1 1 0 1 1-2 0 1 1 0 0 1 2 0z" fill="#00BF8B"/><path d="M192 323h24v2h-24v-2z" fill="#D3DCE6"/><path d="M236 323h36v2h-36v-2z" fill="#D3DCE6"/><path fill-rule="evenodd" clip-rule="evenodd" d="M218 325a1 1 0 1 0 0-2 1 1 0 0 0 0 2zm0 2a3 3 0 1 0 0-6 3 3 0 0 0 0 6z" fill="#00BF8B"/><path d="M225 324a1 1 0 1 1-2 0 1 1 0 0 1 2 0z" fill="#00BF8B"/><path d="M229 324a1 1 0 1 1-2 0 1 1 0 0 1 2 0z" fill="#00BF8B"/><path d="M233 324a1 1 0 1 1-2 0 1 1 0 0 1 2 0z" fill="#00BF8B"/><path d="M237 324a1 1 0 1 1-2 0 1 1 0 0 1 2 0z" fill="#00BF8B"/><path d="M236 416h36v2h-36v-2z" fill="#D3DCE6"/><path d="M192 416h24v2h-24v-2z" fill="#D3DCE6"/><path fill-rule="evenodd" clip-rule="evenodd" d="M218 418a1 1 0 1 0 0-2 1 1 0 0 0 0 2zm0 2a3 3 0 1 0 0-6 3 3 0 0 0 0 6z" fill="#00BF8B"/><path d="M225 417a1 1 0 1 1-2 0 1 1 0 0 1 2 0z" fill="#00BF8B"/><path d="M229 417a1 1 0 1 1-2 0 1 1 0 0 1 2 0z" fill="#00BF8B"/><path d="M233 417a1 1 0 1 1-2 0 1 1 0 0 1 2 0z" fill="#00BF8B"/><path d="M237 417a1 1 0 1 1-2 0 1 1 0 0 1 2 0z" fill="#00BF8B"/><path d="M192 509h24v2h-24v-2z" fill="#D3DCE6"/><path fill-rule="evenodd" clip-rule="evenodd" d="M218 511a1 1 0 1 0 0-2 1 1 0 0 0 0 2zm0 2a3 3 0 1 0 0-6 3 3 0 0 0 0 6z" fill="#00BF8B"/><path d="M225 510a1 1 0 1 1-2 0 1 1 0 0 1 2 0z" fill="#00BF8B"/><path d="M229 510a1 1 0 1 1-2 0 1 1 0 0 1 2 0z" fill="#00BF8B"/><path d="M233 510a1 1 0 1 1-2 0 1 1 0 0 1 2 0z" fill="#00BF8B"/><path d="M237 510a1 1 0 1 1-2 0 1 1 0 0 1 2 0z" fill="#00BF8B"/><path d="M272 323h52v2h-52v-2z" fill="#00BF8B"/><path d="M274 324a2 2 0 1 1-3.999.001A2 2 0 0 1 274 324z" fill="#00BF8B"/><path fill-rule="evenodd" clip-rule="evenodd" d="M293.293 332.707a.999.999 0 0 1 0-1.414l7.293-7.293-7.293-7.293a.999.999 0 1 1 1.414-1.414l8 8a.999.999 0 0 1 0 1.414l-8 8a.999.999 0 0 1-1.414 0z" fill="#00BF8B"/><path fill-rule="evenodd" clip-rule="evenodd" d="M944 139h20v-2h-20c-9.389 0-17 7.611-17 17v170h2V154c0-8.284 6.716-15 15-15z" fill="#D3DCE6"/><path fill-rule="evenodd" clip-rule="evenodd" d="M944 509h20v2h-20c-9.389 0-17-7.611-17-17V324h2v170c0 8.284 6.716 15 15 15z" fill="#D3DCE6"/><path d="M1008 137h-24v2h24v-2z" fill="#D3DCE6"/><path fill-rule="evenodd" clip-rule="evenodd" d="M982 139a1 1 0 1 1 0-2 1 1 0 0 1 0 2zm0 2a3 3 0 1 1 0-6 3 3 0 0 1 0 6z" fill="#1F2D3D"/><path d="M975 138a1 1 0 1 0 2 0 1 1 0 0 0-2 0z" fill="#1F2D3D"/><path d="M971 138a1 1 0 1 0 2 0 1 1 0 0 0-2 0z" fill="#1F2D3D"/><path d="M967 138a1 1 0 1 0 2 0 1 1 0 0 0-2 0z" fill="#1F2D3D"/><path d="M963 138a1 1 0 1 0 2 0 1 1 0 0 0-2 0z" fill="#1F2D3D"/><path d="M1008 230h-24v2h24v-2z" fill="#D3DCE6"/><path d="M964 230h-36v2h36v-2z" fill="#D3DCE6"/><path fill-rule="evenodd" clip-rule="evenodd" d="M982 232a1 1 0 1 1 0-2 1 1 0 0 1 0 2zm0 2a3 3 0 1 1 0-6 3 3 0 0 1 0 6z" fill="#1F2D3D"/><path d="M975 231a1 1 0 1 0 2 0 1 1 0 0 0-2 0z" fill="#1F2D3D"/><path d="M971 231a1 1 0 1 0 2 0 1 1 0 0 0-2 0z" fill="#1F2D3D"/><path d="M967 231a1 1 0 1 0 2 0 1 1 0 0 0-2 0z" fill="#1F2D3D"/><path d="M963 231a1 1 0 1 0 2 0 1 1 0 0 0-2 0z" fill="#1F2D3D"/><path d="M1008 323h-24v2h24v-2z" fill="#D3DCE6"/><path d="M964 323h-36v2h36v-2z" fill="#D3DCE6"/><path fill-rule="evenodd" clip-rule="evenodd" d="M982 325a1 1 0 1 1 0-2 1 1 0 0 1 0 2zm0 2a3 3 0 1 1 0-6 3 3 0 0 1 0 6z" fill="#1F2D3D"/><path d="M975 324a1 1 0 1 0 2 0 1 1 0 0 0-2 0z" fill="#1F2D3D"/><path d="M971 324a1 1 0 1 0 2 0 1 1 0 0 0-2 0z" fill="#1F2D3D"/><path d="M967 324a1 1 0 1 0 2 0 1 1 0 0 0-2 0z" fill="#1F2D3D"/><path d="M963 324a1 1 0 1 0 2 0 1 1 0 0 0-2 0z" fill="#1F2D3D"/><path d="M964 416h-36v2h36v-2z" fill="#D3DCE6"/><path d="M1008 416h-24v2h24v-2z" fill="#D3DCE6"/><path fill-rule="evenodd" clip-rule="evenodd" d="M982 418a1 1 0 1 1 0-2 1 1 0 0 1 0 2zm0 2a3 3 0 1 1 0-6 3 3 0 0 1 0 6z" fill="#1F2D3D"/><path d="M975 417a1 1 0 1 0 2 0 1 1 0 0 0-2 0z" fill="#1F2D3D"/><path d="M971 417a1 1 0 1 0 2 0 1 1 0 0 0-2 0z" fill="#1F2D3D"/><path d="M967 417a1 1 0 1 0 2 0 1 1 0 0 0-2 0z" fill="#1F2D3D"/><path d="M963 417a1 1 0 1 0 2 0 1 1 0 0 0-2 0z" fill="#1F2D3D"/><path d="M1008 509h-24v2h24v-2z" fill="#D3DCE6"/><path fill-rule="evenodd" clip-rule="evenodd" d="M982 511a1 1 0 1 1 0-2 1 1 0 0 1 0 2zm0 2a3 3 0 1 1 0-6 3 3 0 0 1 0 6z" fill="#1F2D3D"/><path d="M975 510a1 1 0 1 0 2 0 1 1 0 0 0-2 0z" fill="#1F2D3D"/><path d="M971 510a1 1 0 1 0 2 0 1 1 0 0 0-2 0z" fill="#1F2D3D"/><path d="M967 510a1 1 0 1 0 2 0 1 1 0 0 0-2 0z" fill="#1F2D3D"/><path d="M963 510a1 1 0 1 0 2 0 1 1 0 0 0-2 0z" fill="#1F2D3D"/><path d="M928 323h-52v2h52v-2z" fill="#1F2D3D"/><path d="M926 324a2 2 0 1 0 3.999.001A2 2 0 0 0 926 324z" fill="#1F2D3D"/><path fill-rule="evenodd" clip-rule="evenodd" d="M897.293 332.707a.999.999 0 0 1 0-1.414l7.293-7.293-7.293-7.293a.999.999 0 1 1 1.414-1.414l8 8a.999.999 0 0 1 0 1.414l-8 8a.999.999 0 0 1-1.414 0z" fill="#1F2D3D"/><defs><linearGradient id="a" x1="324" y1="324" x2="876" y2="324" gradientUnits="userSpaceOnUse"><stop stop-color="#00BF8B"/><stop offset="1" stop-color="#1F2D3D"/></linearGradient><linearGradient id="b" x1="525.022" y1="165.149" x2="516.033" y2="190.081" gradientUnits="userSpaceOnUse"><stop stop-color="#6AEDAD"/><stop offset=".499" stop-color="#37DCA0"/><stop offset="1" stop-color="#00B9A4"/></linearGradient><linearGradient id="c" x1="551.003" y1="159.14" x2="519.807" y2="182.811" gradientUnits="userSpaceOnUse"><stop stop-color="#6AEDAD"/><stop offset=".499" stop-color="#37DCA0"/><stop offset="1" stop-color="#00B9A4"/></linearGradient><linearGradient id="d" x1="567.24" y1="188.22" x2="688.705" y2="166.359" gradientUnits="userSpaceOnUse"><stop stop-color="#00BF8B"/><stop offset="1" stop-color="#1F2D3D"/></linearGradient><linearGradient id="e" x1="567.24" y1="188.22" x2="688.705" y2="166.359" gradientUnits="userSpaceOnUse"><stop stop-color="#00BF8B"/><stop offset="1" stop-color="#1F2D3D"/></linearGradient><linearGradient id="f" x1="567.24" y1="188.22" x2="688.705" y2="166.359" gradientUnits="userSpaceOnUse"><stop stop-color="#00BF8B"/><stop offset="1" stop-color="#1F2D3D"/></linearGradient><linearGradient id="g" x1="567.24" y1="188.22" x2="688.705" y2="166.359" gradientUnits="userSpaceOnUse"><stop stop-color="#00BF8B"/><stop offset="1" stop-color="#1F2D3D"/></linearGradient><linearGradient id="h" x1="567.24" y1="188.22" x2="688.705" y2="166.359" gradientUnits="userSpaceOnUse"><stop stop-color="#00BF8B"/><stop offset="1" stop-color="#1F2D3D"/></linearGradient><linearGradient id="i" x1="567.24" y1="188.22" x2="688.705" y2="166.359" gradientUnits="userSpaceOnUse"><stop stop-color="#00BF8B"/><stop offset="1" stop-color="#1F2D3D"/></linearGradient><linearGradient id="j" x1="472" y1="267" x2="727.006" y2="210.512" gradientUnits="userSpaceOnUse"><stop stop-color="#00BF8B"/><stop offset="1" stop-color="#1F2D3D"/></linearGradient><linearGradient id="k" x1="472" y1="433" x2="727.006" y2="376.512" gradientUnits="userSpaceOnUse"><stop stop-color="#00BF8B"/><stop offset="1" stop-color="#1F2D3D"/></linearGradient><linearGradient id="l" x1="472" y1="350" x2="727.006" y2="293.512" gradientUnits="userSpaceOnUse"><stop stop-color="#00BF8B"/><stop offset="1" stop-color="#1F2D3D"/></linearGradient><linearGradient id="m" x1="472" y1="516" x2="727.006" y2="459.512" gradientUnits="userSpaceOnUse"><stop stop-color="#00BF8B"/><stop offset="1" stop-color="#1F2D3D"/></linearGradient></defs></svg>